%TF.GenerationSoftware,KiCad,Pcbnew,10.0.4*%
%TF.CreationDate,2026-07-30T22:19:23+03:00*%
%TF.ProjectId,SK6812MINI-E,534b3638-3132-44d4-994e-492d452e6b69,rev?*%
%TF.SameCoordinates,Original*%
%TF.FileFunction,Profile,NP*%
%FSLAX46Y46*%
G04 Gerber Fmt 4.6, Leading zero omitted, Abs format (unit mm)*
G04 Created by KiCad (PCBNEW 10.0.4) date 2026-07-30 22:19:23*
%MOMM*%
%LPD*%
G01*
G04 APERTURE LIST*
%TA.AperFunction,Profile*%
%ADD10C,0.100000*%
%TD*%
%TA.AperFunction,Profile*%
%ADD11C,0.120000*%
%TD*%
G04 APERTURE END LIST*
D10*
X71500000Y-24000000D02*
X199500000Y-24000000D01*
X199500000Y-98000000D01*
X71500000Y-98000000D01*
X71500000Y-24000000D01*
%TO.C,D1*%
D11*
X112225000Y-33000000D02*
X112225000Y-32099647D01*
X112225000Y-33000000D02*
X112225000Y-33900353D01*
X113725000Y-31300000D02*
X113024647Y-31300000D01*
X113725000Y-31300000D02*
X114425353Y-31300000D01*
X113725000Y-34700000D02*
X113024647Y-34700000D01*
X113725000Y-34700000D02*
X114425353Y-34700000D01*
X115225000Y-33000000D02*
X115225000Y-32099647D01*
X115225000Y-33000000D02*
X115225000Y-33900353D01*
X112181066Y-31943345D02*
G75*
G02*
X112225002Y-32099647I-256066J-156305D01*
G01*
X112181066Y-31943345D02*
G75*
G02*
X112868345Y-31256066I426774J260505D01*
G01*
X112225000Y-33900353D02*
G75*
G02*
X112181066Y-34056655I-299999J-1D01*
G01*
X112868345Y-34743934D02*
G75*
G02*
X112181066Y-34056655I-260503J426776D01*
G01*
X112868345Y-34743934D02*
G75*
G02*
X113024647Y-34700000I156301J-256065D01*
G01*
X113024647Y-31300000D02*
G75*
G02*
X112868346Y-31256065I3J300000D01*
G01*
X114425353Y-34700000D02*
G75*
G02*
X114581655Y-34743934I1J-299999D01*
G01*
X114581655Y-31256066D02*
G75*
G02*
X114425353Y-31299976I-156255J256066D01*
G01*
X114581655Y-31256066D02*
G75*
G02*
X115268934Y-31943345I260503J-426776D01*
G01*
X115225000Y-32099647D02*
G75*
G02*
X115268935Y-31943346I300000J-3D01*
G01*
X115268934Y-34056655D02*
G75*
G02*
X114581655Y-34743934I-426776J-260503D01*
G01*
X115268934Y-34056655D02*
G75*
G02*
X115225000Y-33900353I256065J156301D01*
G01*
%TD*%
M02*
