%TF.GenerationSoftware,KiCad,Pcbnew,10.0.4*%
%TF.CreationDate,2026-07-30T22:19:23+03:00*%
%TF.ProjectId,SK6812MINI-E,534b3638-3132-44d4-994e-492d452e6b69,rev?*%
%TF.SameCoordinates,Original*%
%TF.FileFunction,Legend,Bot*%
%TF.FilePolarity,Positive*%
%FSLAX46Y46*%
G04 Gerber Fmt 4.6, Leading zero omitted, Abs format (unit mm)*
G04 Created by KiCad (PCBNEW 10.0.4) date 2026-07-30 22:19:23*
%MOMM*%
%LPD*%
G01*
G04 APERTURE LIST*
%ADD10C,0.300000*%
G04 APERTURE END LIST*
D10*
X77054510Y-91515114D02*
X77268796Y-91586542D01*
X77268796Y-91586542D02*
X77340225Y-91657971D01*
X77340225Y-91657971D02*
X77411653Y-91800828D01*
X77411653Y-91800828D02*
X77411653Y-92015114D01*
X77411653Y-92015114D02*
X77340225Y-92157971D01*
X77340225Y-92157971D02*
X77268796Y-92229400D01*
X77268796Y-92229400D02*
X77125939Y-92300828D01*
X77125939Y-92300828D02*
X76554510Y-92300828D01*
X76554510Y-92300828D02*
X76554510Y-90800828D01*
X76554510Y-90800828D02*
X77054510Y-90800828D01*
X77054510Y-90800828D02*
X77197368Y-90872257D01*
X77197368Y-90872257D02*
X77268796Y-90943685D01*
X77268796Y-90943685D02*
X77340225Y-91086542D01*
X77340225Y-91086542D02*
X77340225Y-91229400D01*
X77340225Y-91229400D02*
X77268796Y-91372257D01*
X77268796Y-91372257D02*
X77197368Y-91443685D01*
X77197368Y-91443685D02*
X77054510Y-91515114D01*
X77054510Y-91515114D02*
X76554510Y-91515114D01*
X78697368Y-91300828D02*
X78697368Y-92300828D01*
X78054510Y-91300828D02*
X78054510Y-92086542D01*
X78054510Y-92086542D02*
X78125939Y-92229400D01*
X78125939Y-92229400D02*
X78268796Y-92300828D01*
X78268796Y-92300828D02*
X78483082Y-92300828D01*
X78483082Y-92300828D02*
X78625939Y-92229400D01*
X78625939Y-92229400D02*
X78697368Y-92157971D01*
X79411653Y-91300828D02*
X79411653Y-92300828D01*
X79411653Y-91443685D02*
X79483082Y-91372257D01*
X79483082Y-91372257D02*
X79625939Y-91300828D01*
X79625939Y-91300828D02*
X79840225Y-91300828D01*
X79840225Y-91300828D02*
X79983082Y-91372257D01*
X79983082Y-91372257D02*
X80054511Y-91515114D01*
X80054511Y-91515114D02*
X80054511Y-92300828D01*
X81411654Y-91300828D02*
X81411654Y-92300828D01*
X80768796Y-91300828D02*
X80768796Y-92086542D01*
X80768796Y-92086542D02*
X80840225Y-92229400D01*
X80840225Y-92229400D02*
X80983082Y-92300828D01*
X80983082Y-92300828D02*
X81197368Y-92300828D01*
X81197368Y-92300828D02*
X81340225Y-92229400D01*
X81340225Y-92229400D02*
X81411654Y-92157971D01*
X82125939Y-91300828D02*
X82125939Y-92300828D01*
X82125939Y-91443685D02*
X82197368Y-91372257D01*
X82197368Y-91372257D02*
X82340225Y-91300828D01*
X82340225Y-91300828D02*
X82554511Y-91300828D01*
X82554511Y-91300828D02*
X82697368Y-91372257D01*
X82697368Y-91372257D02*
X82768797Y-91515114D01*
X82768797Y-91515114D02*
X82768797Y-92300828D01*
X84625939Y-92300828D02*
X84625939Y-90800828D01*
X84625939Y-90800828D02*
X85483082Y-92300828D01*
X85483082Y-92300828D02*
X85483082Y-90800828D01*
X86840226Y-92300828D02*
X86840226Y-91515114D01*
X86840226Y-91515114D02*
X86768797Y-91372257D01*
X86768797Y-91372257D02*
X86625940Y-91300828D01*
X86625940Y-91300828D02*
X86340226Y-91300828D01*
X86340226Y-91300828D02*
X86197368Y-91372257D01*
X86840226Y-92229400D02*
X86697368Y-92300828D01*
X86697368Y-92300828D02*
X86340226Y-92300828D01*
X86340226Y-92300828D02*
X86197368Y-92229400D01*
X86197368Y-92229400D02*
X86125940Y-92086542D01*
X86125940Y-92086542D02*
X86125940Y-91943685D01*
X86125940Y-91943685D02*
X86197368Y-91800828D01*
X86197368Y-91800828D02*
X86340226Y-91729400D01*
X86340226Y-91729400D02*
X86697368Y-91729400D01*
X86697368Y-91729400D02*
X86840226Y-91657971D01*
X87483083Y-92229400D02*
X87625940Y-92300828D01*
X87625940Y-92300828D02*
X87911654Y-92300828D01*
X87911654Y-92300828D02*
X88054511Y-92229400D01*
X88054511Y-92229400D02*
X88125940Y-92086542D01*
X88125940Y-92086542D02*
X88125940Y-92015114D01*
X88125940Y-92015114D02*
X88054511Y-91872257D01*
X88054511Y-91872257D02*
X87911654Y-91800828D01*
X87911654Y-91800828D02*
X87697369Y-91800828D01*
X87697369Y-91800828D02*
X87554511Y-91729400D01*
X87554511Y-91729400D02*
X87483083Y-91586542D01*
X87483083Y-91586542D02*
X87483083Y-91515114D01*
X87483083Y-91515114D02*
X87554511Y-91372257D01*
X87554511Y-91372257D02*
X87697369Y-91300828D01*
X87697369Y-91300828D02*
X87911654Y-91300828D01*
X87911654Y-91300828D02*
X88054511Y-91372257D01*
X88768797Y-92300828D02*
X88768797Y-91300828D01*
X88768797Y-90800828D02*
X88697369Y-90872257D01*
X88697369Y-90872257D02*
X88768797Y-90943685D01*
X88768797Y-90943685D02*
X88840226Y-90872257D01*
X88840226Y-90872257D02*
X88768797Y-90800828D01*
X88768797Y-90800828D02*
X88768797Y-90943685D01*
X89697369Y-92300828D02*
X89554512Y-92229400D01*
X89554512Y-92229400D02*
X89483083Y-92086542D01*
X89483083Y-92086542D02*
X89483083Y-90800828D01*
X92268797Y-92157971D02*
X92197369Y-92229400D01*
X92197369Y-92229400D02*
X91983083Y-92300828D01*
X91983083Y-92300828D02*
X91840226Y-92300828D01*
X91840226Y-92300828D02*
X91625940Y-92229400D01*
X91625940Y-92229400D02*
X91483083Y-92086542D01*
X91483083Y-92086542D02*
X91411654Y-91943685D01*
X91411654Y-91943685D02*
X91340226Y-91657971D01*
X91340226Y-91657971D02*
X91340226Y-91443685D01*
X91340226Y-91443685D02*
X91411654Y-91157971D01*
X91411654Y-91157971D02*
X91483083Y-91015114D01*
X91483083Y-91015114D02*
X91625940Y-90872257D01*
X91625940Y-90872257D02*
X91840226Y-90800828D01*
X91840226Y-90800828D02*
X91983083Y-90800828D01*
X91983083Y-90800828D02*
X92197369Y-90872257D01*
X92197369Y-90872257D02*
X92268797Y-90943685D01*
X93554512Y-92300828D02*
X93554512Y-91515114D01*
X93554512Y-91515114D02*
X93483083Y-91372257D01*
X93483083Y-91372257D02*
X93340226Y-91300828D01*
X93340226Y-91300828D02*
X93054512Y-91300828D01*
X93054512Y-91300828D02*
X92911654Y-91372257D01*
X93554512Y-92229400D02*
X93411654Y-92300828D01*
X93411654Y-92300828D02*
X93054512Y-92300828D01*
X93054512Y-92300828D02*
X92911654Y-92229400D01*
X92911654Y-92229400D02*
X92840226Y-92086542D01*
X92840226Y-92086542D02*
X92840226Y-91943685D01*
X92840226Y-91943685D02*
X92911654Y-91800828D01*
X92911654Y-91800828D02*
X93054512Y-91729400D01*
X93054512Y-91729400D02*
X93411654Y-91729400D01*
X93411654Y-91729400D02*
X93554512Y-91657971D01*
X94483083Y-92300828D02*
X94340226Y-92229400D01*
X94340226Y-92229400D02*
X94268797Y-92086542D01*
X94268797Y-92086542D02*
X94268797Y-90800828D01*
X95054511Y-92300828D02*
X95054511Y-91300828D01*
X95054511Y-90800828D02*
X94983083Y-90872257D01*
X94983083Y-90872257D02*
X95054511Y-90943685D01*
X95054511Y-90943685D02*
X95125940Y-90872257D01*
X95125940Y-90872257D02*
X95054511Y-90800828D01*
X95054511Y-90800828D02*
X95054511Y-90943685D01*
X95697369Y-92229400D02*
X95840226Y-92300828D01*
X95840226Y-92300828D02*
X96125940Y-92300828D01*
X96125940Y-92300828D02*
X96268797Y-92229400D01*
X96268797Y-92229400D02*
X96340226Y-92086542D01*
X96340226Y-92086542D02*
X96340226Y-92015114D01*
X96340226Y-92015114D02*
X96268797Y-91872257D01*
X96268797Y-91872257D02*
X96125940Y-91800828D01*
X96125940Y-91800828D02*
X95911655Y-91800828D01*
X95911655Y-91800828D02*
X95768797Y-91729400D01*
X95768797Y-91729400D02*
X95697369Y-91586542D01*
X95697369Y-91586542D02*
X95697369Y-91515114D01*
X95697369Y-91515114D02*
X95768797Y-91372257D01*
X95768797Y-91372257D02*
X95911655Y-91300828D01*
X95911655Y-91300828D02*
X96125940Y-91300828D01*
X96125940Y-91300828D02*
X96268797Y-91372257D01*
X96768798Y-91300828D02*
X97340226Y-91300828D01*
X96983083Y-90800828D02*
X96983083Y-92086542D01*
X96983083Y-92086542D02*
X97054512Y-92229400D01*
X97054512Y-92229400D02*
X97197369Y-92300828D01*
X97197369Y-92300828D02*
X97340226Y-92300828D01*
X97840226Y-92300828D02*
X97840226Y-91300828D01*
X97840226Y-90800828D02*
X97768798Y-90872257D01*
X97768798Y-90872257D02*
X97840226Y-90943685D01*
X97840226Y-90943685D02*
X97911655Y-90872257D01*
X97911655Y-90872257D02*
X97840226Y-90800828D01*
X97840226Y-90800828D02*
X97840226Y-90943685D01*
X99197370Y-91300828D02*
X99197370Y-92515114D01*
X99197370Y-92515114D02*
X99125941Y-92657971D01*
X99125941Y-92657971D02*
X99054512Y-92729400D01*
X99054512Y-92729400D02*
X98911655Y-92800828D01*
X98911655Y-92800828D02*
X98697370Y-92800828D01*
X98697370Y-92800828D02*
X98554512Y-92729400D01*
X99197370Y-92229400D02*
X99054512Y-92300828D01*
X99054512Y-92300828D02*
X98768798Y-92300828D01*
X98768798Y-92300828D02*
X98625941Y-92229400D01*
X98625941Y-92229400D02*
X98554512Y-92157971D01*
X98554512Y-92157971D02*
X98483084Y-92015114D01*
X98483084Y-92015114D02*
X98483084Y-91586542D01*
X98483084Y-91586542D02*
X98554512Y-91443685D01*
X98554512Y-91443685D02*
X98625941Y-91372257D01*
X98625941Y-91372257D02*
X98768798Y-91300828D01*
X98768798Y-91300828D02*
X99054512Y-91300828D01*
X99054512Y-91300828D02*
X99197370Y-91372257D01*
X99911655Y-92300828D02*
X99911655Y-91300828D01*
X99911655Y-90800828D02*
X99840227Y-90872257D01*
X99840227Y-90872257D02*
X99911655Y-90943685D01*
X99911655Y-90943685D02*
X99983084Y-90872257D01*
X99983084Y-90872257D02*
X99911655Y-90800828D01*
X99911655Y-90800828D02*
X99911655Y-90943685D01*
X100625941Y-91300828D02*
X100625941Y-92300828D01*
X100625941Y-91443685D02*
X100697370Y-91372257D01*
X100697370Y-91372257D02*
X100840227Y-91300828D01*
X100840227Y-91300828D02*
X101054513Y-91300828D01*
X101054513Y-91300828D02*
X101197370Y-91372257D01*
X101197370Y-91372257D02*
X101268799Y-91515114D01*
X101268799Y-91515114D02*
X101268799Y-92300828D01*
X101983084Y-92300828D02*
X101983084Y-91300828D01*
X101983084Y-90800828D02*
X101911656Y-90872257D01*
X101911656Y-90872257D02*
X101983084Y-90943685D01*
X101983084Y-90943685D02*
X102054513Y-90872257D01*
X102054513Y-90872257D02*
X101983084Y-90800828D01*
X101983084Y-90800828D02*
X101983084Y-90943685D01*
X104340227Y-91515114D02*
X104554513Y-91586542D01*
X104554513Y-91586542D02*
X104625942Y-91657971D01*
X104625942Y-91657971D02*
X104697370Y-91800828D01*
X104697370Y-91800828D02*
X104697370Y-92015114D01*
X104697370Y-92015114D02*
X104625942Y-92157971D01*
X104625942Y-92157971D02*
X104554513Y-92229400D01*
X104554513Y-92229400D02*
X104411656Y-92300828D01*
X104411656Y-92300828D02*
X103840227Y-92300828D01*
X103840227Y-92300828D02*
X103840227Y-90800828D01*
X103840227Y-90800828D02*
X104340227Y-90800828D01*
X104340227Y-90800828D02*
X104483085Y-90872257D01*
X104483085Y-90872257D02*
X104554513Y-90943685D01*
X104554513Y-90943685D02*
X104625942Y-91086542D01*
X104625942Y-91086542D02*
X104625942Y-91229400D01*
X104625942Y-91229400D02*
X104554513Y-91372257D01*
X104554513Y-91372257D02*
X104483085Y-91443685D01*
X104483085Y-91443685D02*
X104340227Y-91515114D01*
X104340227Y-91515114D02*
X103840227Y-91515114D01*
X105983085Y-92300828D02*
X105983085Y-91515114D01*
X105983085Y-91515114D02*
X105911656Y-91372257D01*
X105911656Y-91372257D02*
X105768799Y-91300828D01*
X105768799Y-91300828D02*
X105483085Y-91300828D01*
X105483085Y-91300828D02*
X105340227Y-91372257D01*
X105983085Y-92229400D02*
X105840227Y-92300828D01*
X105840227Y-92300828D02*
X105483085Y-92300828D01*
X105483085Y-92300828D02*
X105340227Y-92229400D01*
X105340227Y-92229400D02*
X105268799Y-92086542D01*
X105268799Y-92086542D02*
X105268799Y-91943685D01*
X105268799Y-91943685D02*
X105340227Y-91800828D01*
X105340227Y-91800828D02*
X105483085Y-91729400D01*
X105483085Y-91729400D02*
X105840227Y-91729400D01*
X105840227Y-91729400D02*
X105983085Y-91657971D01*
X106697370Y-91300828D02*
X106697370Y-92300828D01*
X106697370Y-91443685D02*
X106768799Y-91372257D01*
X106768799Y-91372257D02*
X106911656Y-91300828D01*
X106911656Y-91300828D02*
X107125942Y-91300828D01*
X107125942Y-91300828D02*
X107268799Y-91372257D01*
X107268799Y-91372257D02*
X107340228Y-91515114D01*
X107340228Y-91515114D02*
X107340228Y-92300828D01*
X108697371Y-92300828D02*
X108697371Y-91515114D01*
X108697371Y-91515114D02*
X108625942Y-91372257D01*
X108625942Y-91372257D02*
X108483085Y-91300828D01*
X108483085Y-91300828D02*
X108197371Y-91300828D01*
X108197371Y-91300828D02*
X108054513Y-91372257D01*
X108697371Y-92229400D02*
X108554513Y-92300828D01*
X108554513Y-92300828D02*
X108197371Y-92300828D01*
X108197371Y-92300828D02*
X108054513Y-92229400D01*
X108054513Y-92229400D02*
X107983085Y-92086542D01*
X107983085Y-92086542D02*
X107983085Y-91943685D01*
X107983085Y-91943685D02*
X108054513Y-91800828D01*
X108054513Y-91800828D02*
X108197371Y-91729400D01*
X108197371Y-91729400D02*
X108554513Y-91729400D01*
X108554513Y-91729400D02*
X108697371Y-91657971D01*
X110054514Y-92300828D02*
X110054514Y-90800828D01*
X110054514Y-92229400D02*
X109911656Y-92300828D01*
X109911656Y-92300828D02*
X109625942Y-92300828D01*
X109625942Y-92300828D02*
X109483085Y-92229400D01*
X109483085Y-92229400D02*
X109411656Y-92157971D01*
X109411656Y-92157971D02*
X109340228Y-92015114D01*
X109340228Y-92015114D02*
X109340228Y-91586542D01*
X109340228Y-91586542D02*
X109411656Y-91443685D01*
X109411656Y-91443685D02*
X109483085Y-91372257D01*
X109483085Y-91372257D02*
X109625942Y-91300828D01*
X109625942Y-91300828D02*
X109911656Y-91300828D01*
X109911656Y-91300828D02*
X110054514Y-91372257D01*
X111411657Y-92300828D02*
X111411657Y-91515114D01*
X111411657Y-91515114D02*
X111340228Y-91372257D01*
X111340228Y-91372257D02*
X111197371Y-91300828D01*
X111197371Y-91300828D02*
X110911657Y-91300828D01*
X110911657Y-91300828D02*
X110768799Y-91372257D01*
X111411657Y-92229400D02*
X111268799Y-92300828D01*
X111268799Y-92300828D02*
X110911657Y-92300828D01*
X110911657Y-92300828D02*
X110768799Y-92229400D01*
X110768799Y-92229400D02*
X110697371Y-92086542D01*
X110697371Y-92086542D02*
X110697371Y-91943685D01*
X110697371Y-91943685D02*
X110768799Y-91800828D01*
X110768799Y-91800828D02*
X110911657Y-91729400D01*
X110911657Y-91729400D02*
X111268799Y-91729400D01*
X111268799Y-91729400D02*
X111411657Y-91657971D01*
X113197371Y-92229400D02*
X113411657Y-92300828D01*
X113411657Y-92300828D02*
X113768799Y-92300828D01*
X113768799Y-92300828D02*
X113911657Y-92229400D01*
X113911657Y-92229400D02*
X113983085Y-92157971D01*
X113983085Y-92157971D02*
X114054514Y-92015114D01*
X114054514Y-92015114D02*
X114054514Y-91872257D01*
X114054514Y-91872257D02*
X113983085Y-91729400D01*
X113983085Y-91729400D02*
X113911657Y-91657971D01*
X113911657Y-91657971D02*
X113768799Y-91586542D01*
X113768799Y-91586542D02*
X113483085Y-91515114D01*
X113483085Y-91515114D02*
X113340228Y-91443685D01*
X113340228Y-91443685D02*
X113268799Y-91372257D01*
X113268799Y-91372257D02*
X113197371Y-91229400D01*
X113197371Y-91229400D02*
X113197371Y-91086542D01*
X113197371Y-91086542D02*
X113268799Y-90943685D01*
X113268799Y-90943685D02*
X113340228Y-90872257D01*
X113340228Y-90872257D02*
X113483085Y-90800828D01*
X113483085Y-90800828D02*
X113840228Y-90800828D01*
X113840228Y-90800828D02*
X114054514Y-90872257D01*
X114911656Y-92300828D02*
X114768799Y-92229400D01*
X114768799Y-92229400D02*
X114697370Y-92157971D01*
X114697370Y-92157971D02*
X114625942Y-92015114D01*
X114625942Y-92015114D02*
X114625942Y-91586542D01*
X114625942Y-91586542D02*
X114697370Y-91443685D01*
X114697370Y-91443685D02*
X114768799Y-91372257D01*
X114768799Y-91372257D02*
X114911656Y-91300828D01*
X114911656Y-91300828D02*
X115125942Y-91300828D01*
X115125942Y-91300828D02*
X115268799Y-91372257D01*
X115268799Y-91372257D02*
X115340228Y-91443685D01*
X115340228Y-91443685D02*
X115411656Y-91586542D01*
X115411656Y-91586542D02*
X115411656Y-92015114D01*
X115411656Y-92015114D02*
X115340228Y-92157971D01*
X115340228Y-92157971D02*
X115268799Y-92229400D01*
X115268799Y-92229400D02*
X115125942Y-92300828D01*
X115125942Y-92300828D02*
X114911656Y-92300828D01*
X116054513Y-92300828D02*
X116054513Y-91300828D01*
X116054513Y-91586542D02*
X116125942Y-91443685D01*
X116125942Y-91443685D02*
X116197371Y-91372257D01*
X116197371Y-91372257D02*
X116340228Y-91300828D01*
X116340228Y-91300828D02*
X116483085Y-91300828D01*
X116983084Y-92300828D02*
X116983084Y-91300828D01*
X116983084Y-91443685D02*
X117054513Y-91372257D01*
X117054513Y-91372257D02*
X117197370Y-91300828D01*
X117197370Y-91300828D02*
X117411656Y-91300828D01*
X117411656Y-91300828D02*
X117554513Y-91372257D01*
X117554513Y-91372257D02*
X117625942Y-91515114D01*
X117625942Y-91515114D02*
X117625942Y-92300828D01*
X117625942Y-91515114D02*
X117697370Y-91372257D01*
X117697370Y-91372257D02*
X117840227Y-91300828D01*
X117840227Y-91300828D02*
X118054513Y-91300828D01*
X118054513Y-91300828D02*
X118197370Y-91372257D01*
X118197370Y-91372257D02*
X118268799Y-91515114D01*
X118268799Y-91515114D02*
X118268799Y-92300828D01*
X119625942Y-92300828D02*
X119625942Y-91515114D01*
X119625942Y-91515114D02*
X119554513Y-91372257D01*
X119554513Y-91372257D02*
X119411656Y-91300828D01*
X119411656Y-91300828D02*
X119125942Y-91300828D01*
X119125942Y-91300828D02*
X118983084Y-91372257D01*
X119625942Y-92229400D02*
X119483084Y-92300828D01*
X119483084Y-92300828D02*
X119125942Y-92300828D01*
X119125942Y-92300828D02*
X118983084Y-92229400D01*
X118983084Y-92229400D02*
X118911656Y-92086542D01*
X118911656Y-92086542D02*
X118911656Y-91943685D01*
X118911656Y-91943685D02*
X118983084Y-91800828D01*
X118983084Y-91800828D02*
X119125942Y-91729400D01*
X119125942Y-91729400D02*
X119483084Y-91729400D01*
X119483084Y-91729400D02*
X119625942Y-91657971D01*
X120197370Y-91300828D02*
X120554513Y-92300828D01*
X120911656Y-91300828D02*
X120554513Y-92300828D01*
X120554513Y-92300828D02*
X120411656Y-92657971D01*
X120411656Y-92657971D02*
X120340227Y-92729400D01*
X120340227Y-92729400D02*
X120197370Y-92800828D01*
X121483084Y-92300828D02*
X121483084Y-91300828D01*
X122197370Y-91300828D02*
X122197370Y-92300828D01*
X122197370Y-91443685D02*
X122268799Y-91372257D01*
X122268799Y-91372257D02*
X122411656Y-91300828D01*
X122411656Y-91300828D02*
X122625942Y-91300828D01*
X122625942Y-91300828D02*
X122768799Y-91372257D01*
X122768799Y-91372257D02*
X122840228Y-91515114D01*
X122840228Y-91515114D02*
X122840228Y-92300828D01*
M02*
