%TF.GenerationSoftware,KiCad,Pcbnew,10.0.4*%
%TF.CreationDate,2026-07-30T22:19:23+03:00*%
%TF.ProjectId,SK6812MINI-E,534b3638-3132-44d4-994e-492d452e6b69,rev?*%
%TF.SameCoordinates,Original*%
%TF.FileFunction,Soldermask,Bot*%
%TF.FilePolarity,Negative*%
%FSLAX46Y46*%
G04 Gerber Fmt 4.6, Leading zero omitted, Abs format (unit mm)*
G04 Created by KiCad (PCBNEW 10.0.4) date 2026-07-30 22:19:23*
%MOMM*%
%LPD*%
G01*
G04 APERTURE LIST*
G04 Aperture macros list*
%AMRoundRect*
0 Rectangle with rounded corners*
0 $1 Rounding radius*
0 $2 $3 $4 $5 $6 $7 $8 $9 X,Y pos of 4 corners*
0 Add a 4 corners polygon primitive as box body*
4,1,4,$2,$3,$4,$5,$6,$7,$8,$9,$2,$3,0*
0 Add four circle primitives for the rounded corners*
1,1,$1+$1,$2,$3*
1,1,$1+$1,$4,$5*
1,1,$1+$1,$6,$7*
1,1,$1+$1,$8,$9*
0 Add four rect primitives between the rounded corners*
20,1,$1+$1,$2,$3,$4,$5,0*
20,1,$1+$1,$4,$5,$6,$7,0*
20,1,$1+$1,$6,$7,$8,$9,0*
20,1,$1+$1,$8,$9,$2,$3,0*%
G04 Aperture macros list end*
%ADD10C,1.700000*%
%ADD11C,4.000000*%
%ADD12C,2.200000*%
%ADD13R,3.500000X1.700000*%
%ADD14O,3.600000X1.700000*%
%ADD15O,3.700000X1.700000*%
%ADD16R,2.000000X2.000000*%
%ADD17C,2.000000*%
%ADD18R,3.200000X2.000000*%
%ADD19RoundRect,0.170000X0.680000X-0.680000X0.680000X0.680000X-0.680000X0.680000X-0.680000X-0.680000X0*%
G04 APERTURE END LIST*
D10*
%TO.C,SW4*%
X138920000Y-85000000D03*
D11*
X144000000Y-85000000D03*
D10*
X149080000Y-85000000D03*
D12*
X146540000Y-79920000D03*
X140190000Y-82460000D03*
%TD*%
D13*
%TO.C,U1*%
X87500000Y-29800000D03*
D14*
X87500000Y-32340000D03*
X87500000Y-34880000D03*
X87500000Y-37420000D03*
X87500000Y-39960000D03*
X87500000Y-42500000D03*
X87500000Y-45040000D03*
X104750000Y-45040000D03*
X104750000Y-42500000D03*
X104750000Y-39960000D03*
D15*
X104750000Y-37420000D03*
X104750000Y-34880000D03*
X104750000Y-32340000D03*
X104750000Y-29800000D03*
%TD*%
D10*
%TO.C,SW3*%
X167920000Y-65000000D03*
D11*
X173000000Y-65000000D03*
D10*
X178080000Y-65000000D03*
D12*
X175540000Y-59920000D03*
X169190000Y-62460000D03*
%TD*%
D16*
%TO.C,SW6*%
X169250000Y-35000000D03*
D17*
X169250000Y-40000000D03*
X169250000Y-37500000D03*
D18*
X176750000Y-31900000D03*
X176750000Y-43100000D03*
D17*
X183750000Y-40000000D03*
X183750000Y-35000000D03*
%TD*%
D10*
%TO.C,SW1*%
X126880000Y-65080000D03*
D11*
X131960000Y-65080000D03*
D10*
X137040000Y-65080000D03*
D12*
X134500000Y-60000000D03*
X128150000Y-62540000D03*
%TD*%
D10*
%TO.C,SW5*%
X159420000Y-85000000D03*
D11*
X164500000Y-85000000D03*
D10*
X169580000Y-85000000D03*
D12*
X167040000Y-79920000D03*
X160690000Y-82460000D03*
%TD*%
D10*
%TO.C,SW2*%
X147500000Y-65040000D03*
D11*
X152580000Y-65040000D03*
D10*
X157660000Y-65040000D03*
D12*
X155120000Y-59960000D03*
X148770000Y-62500000D03*
%TD*%
D19*
%TO.C,U2*%
X125000000Y-40310000D03*
D10*
X125000000Y-37770000D03*
X125000000Y-35230000D03*
X125000000Y-32690000D03*
%TD*%
M02*
