%TF.GenerationSoftware,KiCad,Pcbnew,10.0.4*%
%TF.CreationDate,2026-07-30T22:19:22+03:00*%
%TF.ProjectId,SK6812MINI-E,534b3638-3132-44d4-994e-492d452e6b69,rev?*%
%TF.SameCoordinates,Original*%
%TF.FileFunction,Copper,L1,Top*%
%TF.FilePolarity,Positive*%
%FSLAX46Y46*%
G04 Gerber Fmt 4.6, Leading zero omitted, Abs format (unit mm)*
G04 Created by KiCad (PCBNEW 10.0.4) date 2026-07-30 22:19:22*
%MOMM*%
%LPD*%
G01*
G04 APERTURE LIST*
G04 Aperture macros list*
%AMRoundRect*
0 Rectangle with rounded corners*
0 $1 Rounding radius*
0 $2 $3 $4 $5 $6 $7 $8 $9 X,Y pos of 4 corners*
0 Add a 4 corners polygon primitive as box body*
4,1,4,$2,$3,$4,$5,$6,$7,$8,$9,$2,$3,0*
0 Add four circle primitives for the rounded corners*
1,1,$1+$1,$2,$3*
1,1,$1+$1,$4,$5*
1,1,$1+$1,$6,$7*
1,1,$1+$1,$8,$9*
0 Add four rect primitives between the rounded corners*
20,1,$1+$1,$2,$3,$4,$5,0*
20,1,$1+$1,$4,$5,$6,$7,0*
20,1,$1+$1,$6,$7,$8,$9,0*
20,1,$1+$1,$8,$9,$2,$3,0*%
G04 Aperture macros list end*
%TA.AperFunction,ComponentPad*%
%ADD10C,2.200000*%
%TD*%
%TA.AperFunction,ComponentPad*%
%ADD11R,3.500000X1.700000*%
%TD*%
%TA.AperFunction,ComponentPad*%
%ADD12O,3.600000X1.700000*%
%TD*%
%TA.AperFunction,ComponentPad*%
%ADD13O,3.700000X1.700000*%
%TD*%
%TA.AperFunction,ComponentPad*%
%ADD14R,2.000000X2.000000*%
%TD*%
%TA.AperFunction,ComponentPad*%
%ADD15C,2.000000*%
%TD*%
%TA.AperFunction,ComponentPad*%
%ADD16R,3.200000X2.000000*%
%TD*%
%TA.AperFunction,SMDPad,CuDef*%
%ADD17RoundRect,0.205000X0.205000X-0.470000X0.205000X0.470000X-0.205000X0.470000X-0.205000X-0.470000X0*%
%TD*%
%TA.AperFunction,ComponentPad*%
%ADD18RoundRect,0.170000X0.680000X-0.680000X0.680000X0.680000X-0.680000X0.680000X-0.680000X-0.680000X0*%
%TD*%
%TA.AperFunction,ComponentPad*%
%ADD19C,1.700000*%
%TD*%
%TA.AperFunction,ViaPad*%
%ADD20C,0.600000*%
%TD*%
%TA.AperFunction,Conductor*%
%ADD21C,0.200000*%
%TD*%
G04 APERTURE END LIST*
D10*
%TO.P,SW4,1,1_1*%
%TO.N,Net-(U1-PA4_A1_D1)*%
X146540000Y-79920000D03*
%TO.P,SW4,2,2_2*%
%TO.N,GND*%
X140190000Y-82460000D03*
%TD*%
D11*
%TO.P,U1,1,PA02_A0_D0_1*%
%TO.N,Net-(U1-PA02_A0_D0)*%
X87500000Y-29800000D03*
D12*
%TO.P,U1,2,PA4_A1_D1_2*%
%TO.N,Net-(U1-PA4_A1_D1)*%
X87500000Y-32340000D03*
%TO.P,U1,3,PA10_A2_D2_3*%
%TO.N,Net-(U1-PA10_A2_D2)*%
X87500000Y-34880000D03*
%TO.P,U1,4,PA11_A3_D3_4*%
%TO.N,Net-(U1-PA11_A3_D3)*%
X87500000Y-37420000D03*
%TO.P,U1,5,PA8_A4_D4_SDA_5*%
%TO.N,Net-(U1-PA8_A4_D4_SDA)*%
X87500000Y-39960000D03*
%TO.P,U1,6,PA9_A5_D5_SCL_6*%
%TO.N,Net-(U1-PA9_A5_D5_SCL)*%
X87500000Y-42500000D03*
%TO.P,U1,7,PB08_A6_D6_TX_7*%
%TO.N,Net-(D1-DIN)*%
X87500000Y-45040000D03*
%TO.P,U1,8,PB09_A7_D7_RX_8*%
%TO.N,Net-(U1-PB09_A7_D7_RX)*%
X104750000Y-45040000D03*
%TO.P,U1,9,PA7_A8_D8_SCK_9*%
%TO.N,Net-(U1-PA7_A8_D8_SCK)*%
X104750000Y-42500000D03*
%TO.P,U1,10,PA5_A9_D9_MISO_10*%
%TO.N,Net-(U1-PA5_A9_D9_MISO)*%
X104750000Y-39960000D03*
D13*
%TO.P,U1,11,PA6_A10_D10_MOSI_11*%
%TO.N,Net-(U1-PA6_A10_D10_MOSI)*%
X104750000Y-37420000D03*
%TO.P,U1,12,3V3_12*%
%TO.N,Net-(D1-VDD)*%
X104750000Y-34880000D03*
%TO.P,U1,13,GND_13*%
%TO.N,GND*%
X104750000Y-32340000D03*
%TO.P,U1,14,5V_14*%
%TO.N,Net-(U1-5V)*%
X104750000Y-29800000D03*
%TD*%
D10*
%TO.P,SW3,1,1_1*%
%TO.N,Net-(U1-PB09_A7_D7_RX)*%
X175540000Y-59920000D03*
%TO.P,SW3,2,2_2*%
%TO.N,GND*%
X169190000Y-62460000D03*
%TD*%
D14*
%TO.P,SW6,A,A_A*%
%TO.N,Net-(U1-PA6_A10_D10_MOSI)*%
X169250000Y-35000000D03*
D15*
%TO.P,SW6,B,B_B*%
%TO.N,Net-(U1-PA5_A9_D9_MISO)*%
X169250000Y-40000000D03*
%TO.P,SW6,C,C_C*%
%TO.N,GND*%
X169250000Y-37500000D03*
D16*
%TO.P,SW6,MP*%
%TO.N,N/C*%
X176750000Y-31900000D03*
X176750000Y-43100000D03*
D15*
%TO.P,SW6,S1,S1_S1*%
%TO.N,GND*%
X183750000Y-40000000D03*
%TO.P,SW6,S2,S2_S2*%
%TO.N,Net-(U1-PA7_A8_D8_SCK)*%
X183750000Y-35000000D03*
%TD*%
D10*
%TO.P,SW1,1,1_1*%
%TO.N,Net-(U1-PA02_A0_D0)*%
X134500000Y-60000000D03*
%TO.P,SW1,2,2_2*%
%TO.N,GND*%
X128150000Y-62540000D03*
%TD*%
%TO.P,SW5,1,1_1*%
%TO.N,Net-(U1-PA11_A3_D3)*%
X167040000Y-79920000D03*
%TO.P,SW5,2,2_2*%
%TO.N,GND*%
X160690000Y-82460000D03*
%TD*%
%TO.P,SW2,1,1_1*%
%TO.N,Net-(U1-PA10_A2_D2)*%
X155120000Y-59960000D03*
%TO.P,SW2,2,2_2*%
%TO.N,GND*%
X148770000Y-62500000D03*
%TD*%
D17*
%TO.P,D1,1,VSS_1*%
%TO.N,GND*%
X114475000Y-35725000D03*
%TO.P,D1,2,DIN_2*%
%TO.N,Net-(D1-DIN)*%
X112975000Y-35725000D03*
%TO.P,D1,3,VDD_3*%
%TO.N,Net-(D1-VDD)*%
X112975000Y-30275000D03*
%TO.P,D1,4,DOUT_4*%
%TO.N,unconnected-(D1-DOUT-Pad4)*%
X114475000Y-30275000D03*
%TD*%
D18*
%TO.P,U2,1,GND_1*%
%TO.N,GND*%
X125000000Y-40310000D03*
D19*
%TO.P,U2,2,VCC_2*%
%TO.N,Net-(U1-5V)*%
X125000000Y-37770000D03*
%TO.P,U2,3,SCL_3*%
%TO.N,Net-(U1-PA9_A5_D5_SCL)*%
X125000000Y-35230000D03*
%TO.P,U2,4,SDA_4*%
%TO.N,Net-(U1-PA8_A4_D4_SDA)*%
X125000000Y-32690000D03*
%TD*%
D20*
%TO.N,Net-(U1-PA11_A3_D3)*%
X76500000Y-39500000D03*
%TO.N,Net-(D1-VDD)*%
X109500000Y-32500000D03*
%TD*%
%TO.N,Net-(U1-PA6_A10_D10_MOSI)*%
D21*
X161500000Y-43500000D02*
X114000000Y-43500000D01*
X164000000Y-35000000D02*
X163000000Y-36000000D01*
X163000000Y-42000000D02*
X161500000Y-43500000D01*
X107920000Y-37420000D02*
X103750000Y-37420000D01*
X114000000Y-43500000D02*
X107920000Y-37420000D01*
X163000000Y-36000000D02*
X163000000Y-42000000D01*
X169250000Y-35000000D02*
X164000000Y-35000000D01*
%TO.N,Net-(U1-PA5_A9_D9_MISO)*%
X109226346Y-44400000D02*
X104786346Y-39960000D01*
X164850000Y-44400000D02*
X109226346Y-44400000D01*
X104786346Y-39960000D02*
X103750000Y-39960000D01*
X169250000Y-40000000D02*
X164850000Y-44400000D01*
%TO.N,GND*%
X112806346Y-40310000D02*
X104836346Y-32340000D01*
X114475000Y-35725000D02*
X114475000Y-37025000D01*
X164000000Y-38500000D02*
X164000000Y-42000000D01*
X106226346Y-38570000D02*
X103273654Y-38570000D01*
X164000000Y-42000000D02*
X162000000Y-44000000D01*
X103273654Y-38570000D02*
X102600000Y-37896346D01*
X113500000Y-38000000D02*
X112500000Y-38000000D01*
X104836346Y-32340000D02*
X103750000Y-32340000D01*
X111656346Y-44000000D02*
X106226346Y-38570000D01*
X165000000Y-37500000D02*
X164000000Y-38500000D01*
X114475000Y-37025000D02*
X113500000Y-38000000D01*
X112500000Y-38000000D02*
X106840000Y-32340000D01*
X102600000Y-37896346D02*
X102600000Y-33490000D01*
X162000000Y-44000000D02*
X111656346Y-44000000D01*
X102600000Y-33490000D02*
X103750000Y-32340000D01*
X125000000Y-40310000D02*
X112806346Y-40310000D01*
X106840000Y-32340000D02*
X103750000Y-32340000D01*
X169250000Y-37500000D02*
X165000000Y-37500000D01*
%TO.N,Net-(U1-PA7_A8_D8_SCK)*%
X104786346Y-42500000D02*
X103750000Y-42500000D01*
X183750000Y-35000000D02*
X190000000Y-35000000D01*
X109286346Y-47000000D02*
X104786346Y-42500000D01*
X190500000Y-35500000D02*
X190500000Y-45500000D01*
X190000000Y-35000000D02*
X190500000Y-35500000D01*
X189000000Y-47000000D02*
X109286346Y-47000000D01*
X190500000Y-45500000D02*
X189000000Y-47000000D01*
%TO.N,Net-(U1-PA4_A1_D1)*%
X146540000Y-76040000D02*
X145500000Y-75000000D01*
X87000000Y-24500000D02*
X89000000Y-24500000D01*
X112500000Y-75000000D02*
X82000000Y-44500000D01*
X145500000Y-75000000D02*
X112500000Y-75000000D01*
X82000000Y-29500000D02*
X87000000Y-24500000D01*
X82000000Y-44500000D02*
X82000000Y-29500000D01*
X146540000Y-79920000D02*
X146540000Y-76040000D01*
X91000000Y-26500000D02*
X91000000Y-30500000D01*
X89000000Y-24500000D02*
X91000000Y-26500000D01*
X91000000Y-30500000D02*
X89160000Y-32340000D01*
X89160000Y-32340000D02*
X88500000Y-32340000D01*
%TO.N,Net-(U1-5V)*%
X121000000Y-36500000D02*
X122500000Y-38000000D01*
X123730000Y-37770000D02*
X125000000Y-37770000D01*
X123500000Y-38000000D02*
X123730000Y-37770000D01*
X103750000Y-29800000D02*
X106050000Y-27500000D01*
X122500000Y-38000000D02*
X123500000Y-38000000D01*
X116500000Y-27500000D02*
X118000000Y-29000000D01*
X121000000Y-34000000D02*
X121000000Y-36500000D01*
X118000000Y-29000000D02*
X118000000Y-31000000D01*
X106050000Y-27500000D02*
X116500000Y-27500000D01*
X118000000Y-31000000D02*
X121000000Y-34000000D01*
%TO.N,Net-(U1-PA9_A5_D5_SCL)*%
X88500000Y-42500000D02*
X93500000Y-42500000D01*
X118500000Y-28000000D02*
X118500000Y-29500000D01*
X123000000Y-34500000D02*
X123730000Y-35230000D01*
X93500000Y-42500000D02*
X96500000Y-39500000D01*
X96500000Y-34000000D02*
X103500000Y-27000000D01*
X123730000Y-35230000D02*
X125000000Y-35230000D01*
X118500000Y-29500000D02*
X123000000Y-34000000D01*
X103500000Y-27000000D02*
X117500000Y-27000000D01*
X123000000Y-34000000D02*
X123000000Y-34500000D01*
X117500000Y-27000000D02*
X118500000Y-28000000D01*
X96500000Y-39500000D02*
X96500000Y-34000000D01*
%TO.N,Net-(U1-PA8_A4_D4_SDA)*%
X94500000Y-34000000D02*
X94500000Y-38500000D01*
X125000000Y-32690000D02*
X118810000Y-26500000D01*
X93000000Y-40000000D02*
X92960000Y-39960000D01*
X102000000Y-26500000D02*
X94500000Y-34000000D01*
X92960000Y-39960000D02*
X88500000Y-39960000D01*
X118810000Y-26500000D02*
X102000000Y-26500000D01*
X94500000Y-38500000D02*
X93000000Y-40000000D01*
%TO.N,Net-(U1-PA11_A3_D3)*%
X167040000Y-79960000D02*
X167000000Y-80000000D01*
X175000000Y-80000000D02*
X176500000Y-81500000D01*
X167000000Y-80000000D02*
X175000000Y-80000000D01*
X174000000Y-96000000D02*
X130000000Y-96000000D01*
X167040000Y-79920000D02*
X167040000Y-79960000D01*
X176500000Y-93500000D02*
X174000000Y-96000000D01*
X176500000Y-81500000D02*
X176500000Y-93500000D01*
X130000000Y-96000000D02*
X76500000Y-42500000D01*
X76500000Y-42500000D02*
X76500000Y-39500000D01*
%TO.N,Net-(U1-PB09_A7_D7_RX)*%
X175540000Y-59920000D02*
X175540000Y-51040000D01*
X174000000Y-49500000D02*
X108210000Y-49500000D01*
X108210000Y-49500000D02*
X103750000Y-45040000D01*
X175540000Y-51040000D02*
X174000000Y-49500000D01*
%TO.N,Net-(U1-PA10_A2_D2)*%
X84500000Y-36000000D02*
X85620000Y-34880000D01*
X107000000Y-50500000D02*
X105000000Y-48500000D01*
X88383654Y-48500000D02*
X84500000Y-44616346D01*
X84500000Y-44616346D02*
X84500000Y-36000000D01*
X155120000Y-59960000D02*
X155120000Y-51620000D01*
X85620000Y-34880000D02*
X88500000Y-34880000D01*
X155120000Y-51620000D02*
X154000000Y-50500000D01*
X105000000Y-48500000D02*
X88383654Y-48500000D01*
X154000000Y-50500000D02*
X107000000Y-50500000D01*
%TO.N,Net-(D1-DIN)*%
X112975000Y-35725000D02*
X111725000Y-35725000D01*
X111725000Y-35725000D02*
X107000000Y-31000000D01*
X98000000Y-42000000D02*
X94960000Y-45040000D01*
X94960000Y-45040000D02*
X88500000Y-45040000D01*
X98000000Y-34000000D02*
X98000000Y-42000000D01*
X101000000Y-31000000D02*
X98000000Y-34000000D01*
X107000000Y-31000000D02*
X101000000Y-31000000D01*
%TO.N,Net-(D1-VDD)*%
X112975000Y-30275000D02*
X111725000Y-30275000D01*
X111725000Y-30275000D02*
X109500000Y-32500000D01*
%TO.N,Net-(U1-PA02_A0_D0)*%
X106500000Y-51000000D02*
X104500000Y-49000000D01*
X83500000Y-44500000D02*
X83500000Y-32500000D01*
X86200000Y-29800000D02*
X88500000Y-29800000D01*
X125500000Y-51000000D02*
X106500000Y-51000000D01*
X83500000Y-32500000D02*
X86200000Y-29800000D01*
X134500000Y-60000000D02*
X125500000Y-51000000D01*
X104500000Y-49000000D02*
X88000000Y-49000000D01*
X88000000Y-49000000D02*
X83500000Y-44500000D01*
%TD*%
M02*
