%TF.GenerationSoftware,KiCad,Pcbnew,10.0.4*%
%TF.CreationDate,2026-07-30T22:19:22+03:00*%
%TF.ProjectId,SK6812MINI-E,534b3638-3132-44d4-994e-492d452e6b69,rev?*%
%TF.SameCoordinates,Original*%
%TF.FileFunction,Copper,L2,Bot*%
%TF.FilePolarity,Positive*%
%FSLAX46Y46*%
G04 Gerber Fmt 4.6, Leading zero omitted, Abs format (unit mm)*
G04 Created by KiCad (PCBNEW 10.0.4) date 2026-07-30 22:19:22*
%MOMM*%
%LPD*%
G01*
G04 APERTURE LIST*
G04 Aperture macros list*
%AMRoundRect*
0 Rectangle with rounded corners*
0 $1 Rounding radius*
0 $2 $3 $4 $5 $6 $7 $8 $9 X,Y pos of 4 corners*
0 Add a 4 corners polygon primitive as box body*
4,1,4,$2,$3,$4,$5,$6,$7,$8,$9,$2,$3,0*
0 Add four circle primitives for the rounded corners*
1,1,$1+$1,$2,$3*
1,1,$1+$1,$4,$5*
1,1,$1+$1,$6,$7*
1,1,$1+$1,$8,$9*
0 Add four rect primitives between the rounded corners*
20,1,$1+$1,$2,$3,$4,$5,0*
20,1,$1+$1,$4,$5,$6,$7,0*
20,1,$1+$1,$6,$7,$8,$9,0*
20,1,$1+$1,$8,$9,$2,$3,0*%
G04 Aperture macros list end*
%TA.AperFunction,ComponentPad*%
%ADD10C,2.200000*%
%TD*%
%TA.AperFunction,ComponentPad*%
%ADD11R,3.500000X1.700000*%
%TD*%
%TA.AperFunction,ComponentPad*%
%ADD12O,3.600000X1.700000*%
%TD*%
%TA.AperFunction,ComponentPad*%
%ADD13O,3.700000X1.700000*%
%TD*%
%TA.AperFunction,ComponentPad*%
%ADD14R,2.000000X2.000000*%
%TD*%
%TA.AperFunction,ComponentPad*%
%ADD15C,2.000000*%
%TD*%
%TA.AperFunction,ComponentPad*%
%ADD16R,3.200000X2.000000*%
%TD*%
%TA.AperFunction,ComponentPad*%
%ADD17RoundRect,0.170000X0.680000X-0.680000X0.680000X0.680000X-0.680000X0.680000X-0.680000X-0.680000X0*%
%TD*%
%TA.AperFunction,ComponentPad*%
%ADD18C,1.700000*%
%TD*%
%TA.AperFunction,ViaPad*%
%ADD19C,0.600000*%
%TD*%
%TA.AperFunction,Conductor*%
%ADD20C,0.200000*%
%TD*%
G04 APERTURE END LIST*
D10*
%TO.P,SW4,1,1_1*%
%TO.N,Net-(U1-PA4_A1_D1)*%
X146540000Y-79920000D03*
%TO.P,SW4,2,2_2*%
%TO.N,GND*%
X140190000Y-82460000D03*
%TD*%
D11*
%TO.P,U1,1,PA02_A0_D0_1*%
%TO.N,Net-(U1-PA02_A0_D0)*%
X87500000Y-29800000D03*
D12*
%TO.P,U1,2,PA4_A1_D1_2*%
%TO.N,Net-(U1-PA4_A1_D1)*%
X87500000Y-32340000D03*
%TO.P,U1,3,PA10_A2_D2_3*%
%TO.N,Net-(U1-PA10_A2_D2)*%
X87500000Y-34880000D03*
%TO.P,U1,4,PA11_A3_D3_4*%
%TO.N,Net-(U1-PA11_A3_D3)*%
X87500000Y-37420000D03*
%TO.P,U1,5,PA8_A4_D4_SDA_5*%
%TO.N,Net-(U1-PA8_A4_D4_SDA)*%
X87500000Y-39960000D03*
%TO.P,U1,6,PA9_A5_D5_SCL_6*%
%TO.N,Net-(U1-PA9_A5_D5_SCL)*%
X87500000Y-42500000D03*
%TO.P,U1,7,PB08_A6_D6_TX_7*%
%TO.N,Net-(D1-DIN)*%
X87500000Y-45040000D03*
%TO.P,U1,8,PB09_A7_D7_RX_8*%
%TO.N,Net-(U1-PB09_A7_D7_RX)*%
X104750000Y-45040000D03*
%TO.P,U1,9,PA7_A8_D8_SCK_9*%
%TO.N,Net-(U1-PA7_A8_D8_SCK)*%
X104750000Y-42500000D03*
%TO.P,U1,10,PA5_A9_D9_MISO_10*%
%TO.N,Net-(U1-PA5_A9_D9_MISO)*%
X104750000Y-39960000D03*
D13*
%TO.P,U1,11,PA6_A10_D10_MOSI_11*%
%TO.N,Net-(U1-PA6_A10_D10_MOSI)*%
X104750000Y-37420000D03*
%TO.P,U1,12,3V3_12*%
%TO.N,Net-(D1-VDD)*%
X104750000Y-34880000D03*
%TO.P,U1,13,GND_13*%
%TO.N,GND*%
X104750000Y-32340000D03*
%TO.P,U1,14,5V_14*%
%TO.N,Net-(U1-5V)*%
X104750000Y-29800000D03*
%TD*%
D10*
%TO.P,SW3,1,1_1*%
%TO.N,Net-(U1-PB09_A7_D7_RX)*%
X175540000Y-59920000D03*
%TO.P,SW3,2,2_2*%
%TO.N,GND*%
X169190000Y-62460000D03*
%TD*%
D14*
%TO.P,SW6,A,A_A*%
%TO.N,Net-(U1-PA6_A10_D10_MOSI)*%
X169250000Y-35000000D03*
D15*
%TO.P,SW6,B,B_B*%
%TO.N,Net-(U1-PA5_A9_D9_MISO)*%
X169250000Y-40000000D03*
%TO.P,SW6,C,C_C*%
%TO.N,GND*%
X169250000Y-37500000D03*
D16*
%TO.P,SW6,MP*%
%TO.N,N/C*%
X176750000Y-31900000D03*
X176750000Y-43100000D03*
D15*
%TO.P,SW6,S1,S1_S1*%
%TO.N,GND*%
X183750000Y-40000000D03*
%TO.P,SW6,S2,S2_S2*%
%TO.N,Net-(U1-PA7_A8_D8_SCK)*%
X183750000Y-35000000D03*
%TD*%
D10*
%TO.P,SW1,1,1_1*%
%TO.N,Net-(U1-PA02_A0_D0)*%
X134500000Y-60000000D03*
%TO.P,SW1,2,2_2*%
%TO.N,GND*%
X128150000Y-62540000D03*
%TD*%
%TO.P,SW5,1,1_1*%
%TO.N,Net-(U1-PA11_A3_D3)*%
X167040000Y-79920000D03*
%TO.P,SW5,2,2_2*%
%TO.N,GND*%
X160690000Y-82460000D03*
%TD*%
%TO.P,SW2,1,1_1*%
%TO.N,Net-(U1-PA10_A2_D2)*%
X155120000Y-59960000D03*
%TO.P,SW2,2,2_2*%
%TO.N,GND*%
X148770000Y-62500000D03*
%TD*%
D17*
%TO.P,U2,1,GND_1*%
%TO.N,GND*%
X125000000Y-40310000D03*
D18*
%TO.P,U2,2,VCC_2*%
%TO.N,Net-(U1-5V)*%
X125000000Y-37770000D03*
%TO.P,U2,3,SCL_3*%
%TO.N,Net-(U1-PA9_A5_D5_SCL)*%
X125000000Y-35230000D03*
%TO.P,U2,4,SDA_4*%
%TO.N,Net-(U1-PA8_A4_D4_SDA)*%
X125000000Y-32690000D03*
%TD*%
D19*
%TO.N,Net-(U1-PA11_A3_D3)*%
X76500000Y-39500000D03*
%TO.N,Net-(D1-VDD)*%
X109500000Y-32500000D03*
%TD*%
%TO.N,GND*%
D20*
X102600000Y-31190000D02*
X103750000Y-32340000D01*
X128190000Y-62500000D02*
X128150000Y-62540000D01*
X160690000Y-70532944D02*
X168762944Y-62460000D01*
X102600000Y-29323654D02*
X102600000Y-31190000D01*
X103590000Y-32500000D02*
X103750000Y-32340000D01*
X128150000Y-62540000D02*
X112110000Y-46500000D01*
X101500000Y-32500000D02*
X103590000Y-32500000D01*
X112110000Y-46500000D02*
X101000000Y-46500000D01*
X169074876Y-28650000D02*
X103273654Y-28650000D01*
X180424876Y-40000000D02*
X169074876Y-28650000D01*
X160690000Y-82460000D02*
X160690000Y-70532944D01*
X148810000Y-62460000D02*
X148770000Y-62500000D01*
X101000000Y-46500000D02*
X100000000Y-45500000D01*
X168762944Y-62460000D02*
X169190000Y-62460000D01*
X183750000Y-40000000D02*
X180424876Y-40000000D01*
X100000000Y-34000000D02*
X101500000Y-32500000D01*
X140190000Y-82460000D02*
X160690000Y-82460000D01*
X169190000Y-62460000D02*
X148810000Y-62460000D01*
X103273654Y-28650000D02*
X102600000Y-29323654D01*
X148770000Y-62500000D02*
X128190000Y-62500000D01*
X100000000Y-45500000D02*
X100000000Y-34000000D01*
%TO.N,Net-(U1-PA11_A3_D3)*%
X78580000Y-37420000D02*
X88500000Y-37420000D01*
X76500000Y-39500000D02*
X78580000Y-37420000D01*
%TO.N,Net-(D1-VDD)*%
X109500000Y-32500000D02*
X107120000Y-34880000D01*
X107120000Y-34880000D02*
X103750000Y-34880000D01*
%TD*%
M02*
