ISO-10303-21;
HEADER;

/* File generated by Shapr3D Version 26.113.0.11178 */

FILE_DESCRIPTION(('HOOPS Exchange Step'),'2;1');

FILE_NAME('/Users/omercamoglu/Library/Containers/com.shapr3d.shapr/Data/tmp/export/temp_export',
'2026-08-05T21:20:34+03:00',
('omercamoglu'),
('Shapr3D Limited'),
'HOOPS Exchange 2026.3',
'Shapr3D',
'Authorized');

FILE_SCHEMA( ('AP242_MANAGED_MODEL_BASED_3D_ENGINEERING_MIM_LF {1 0 10303 442 1 1 4}') );

ENDSEC;

DATA;
#3=(NAMED_UNIT(*)PLANE_ANGLE_UNIT()SI_UNIT($,.RADIAN.));
#4=PLANE_ANGLE_MEASURE_WITH_UNIT(PLANE_ANGLE_MEASURE(0.0174532925),#3);
#5=(CONVERSION_BASED_UNIT('DEGREE',#4)NAMED_UNIT(#6)PLANE_ANGLE_UNIT());
#6=DIMENSIONAL_EXPONENTS(0.,0.,0.,0.,0.,0.,0.);
#7=(NAMED_UNIT(*)SI_UNIT($,.STERADIAN.)SOLID_ANGLE_UNIT());
#8=(LENGTH_UNIT()NAMED_UNIT(*)SI_UNIT(.MILLI.,.METRE.));
#9=UNCERTAINTY_MEASURE_WITH_UNIT(LENGTH_MEASURE(1.000000E-05),#8,'DISTANCE_ACCURACY_VALUE','Maximum Tolerance applied to model');
#10=(GEOMETRIC_REPRESENTATION_CONTEXT(3)GLOBAL_UNCERTAINTY_ASSIGNED_CONTEXT((#9))GLOBAL_UNIT_ASSIGNED_CONTEXT((#8,#5,#7))REPRESENTATION_CONTEXT('','root'));
#12=CARTESIAN_POINT('',(0.,0.,0.));
#13=DIRECTION('',(0.,0.,1.));
#14=DIRECTION('',(1.,0.,0.));
#15=AXIS2_PLACEMENT_3D('TS3D_PRODUCT_CSYS',#12,#13,#14);
#27=CARTESIAN_POINT('',(0.,0.,1.6));
#28=DIRECTION('',(0.,0.,1.));
#29=DIRECTION('',(1.,0.,0.));
#30=AXIS2_PLACEMENT_3D('',#27,#28,#29);
#31=PLANE('',#30);
#32=CARTESIAN_POINT('',(276.8,-39.5,1.6));
#33=VERTEX_POINT('',#32);
#34=CARTESIAN_POINT('',(177.503251393,-39.5,1.6));
#35=VERTEX_POINT('',#34);
#36=CARTESIAN_POINT('',(276.8,-39.5,1.6));
#37=DIRECTION('',(-1.,-0.,0.));
#38=VECTOR('',#37,99.296748607);
#39=LINE('',#36,#38);
#40=EDGE_CURVE('',#33,#35,#39,.T.);
#41=ORIENTED_EDGE('',*,*,#40,.F.);
#42=CARTESIAN_POINT('',(277.5,-40.2,1.6));
#43=VERTEX_POINT('',#42);
#44=CARTESIAN_POINT('',(276.8,-40.2,1.6));
#45=DIRECTION('',(-0.,-0.,-1.));
#46=DIRECTION('',(1.,0.,-0.));
#47=AXIS2_PLACEMENT_3D('',#44,#45,#46);
#48=CIRCLE('',#47,0.7);
#49=EDGE_CURVE('',#33,#43,#48,.T.);
#50=ORIENTED_EDGE('',*,*,#49,.T.);
#51=CARTESIAN_POINT('',(277.5,-119.8,1.6));
#52=VERTEX_POINT('',#51);
#53=CARTESIAN_POINT('',(277.5,-119.8,1.6));
#54=DIRECTION('',(0.,1.,0.));
#55=VECTOR('',#54,79.6);
#56=LINE('',#53,#55);
#57=EDGE_CURVE('',#52,#43,#56,.T.);
#58=ORIENTED_EDGE('',*,*,#57,.F.);
#59=CARTESIAN_POINT('',(276.8,-120.5,1.6));
#60=VERTEX_POINT('',#59);
#61=CARTESIAN_POINT('',(276.8,-119.8,1.6));
#62=DIRECTION('',(-0.,-0.,-1.));
#63=DIRECTION('',(1.,0.,-0.));
#64=AXIS2_PLACEMENT_3D('',#61,#62,#63);
#65=CIRCLE('',#64,0.7);
#66=EDGE_CURVE('',#52,#60,#65,.T.);
#67=ORIENTED_EDGE('',*,*,#66,.T.);
#68=CARTESIAN_POINT('',(143.2,-120.5,1.6));
#69=VERTEX_POINT('',#68);
#70=CARTESIAN_POINT('',(143.2,-120.5,1.6));
#71=DIRECTION('',(1.,0.,-0.));
#72=VECTOR('',#71,133.6);
#73=LINE('',#70,#72);
#74=EDGE_CURVE('',#69,#60,#73,.T.);
#75=ORIENTED_EDGE('',*,*,#74,.F.);
#76=CARTESIAN_POINT('',(142.5,-119.8,1.6));
#77=VERTEX_POINT('',#76);
#78=CARTESIAN_POINT('',(143.2,-119.8,1.6));
#79=DIRECTION('',(-0.,-0.,-1.));
#80=DIRECTION('',(1.,0.,-0.));
#81=AXIS2_PLACEMENT_3D('',#78,#79,#80);
#82=CIRCLE('',#81,0.7);
#83=EDGE_CURVE('',#69,#77,#82,.T.);
#84=ORIENTED_EDGE('',*,*,#83,.T.);
#85=CARTESIAN_POINT('',(142.5,-40.2,1.6));
#86=VERTEX_POINT('',#85);
#87=CARTESIAN_POINT('',(142.5,-40.2,1.6));
#88=DIRECTION('',(0.,-1.,0.));
#89=VECTOR('',#88,79.6);
#90=LINE('',#87,#89);
#91=EDGE_CURVE('',#86,#77,#90,.T.);
#92=ORIENTED_EDGE('',*,*,#91,.F.);
#93=CARTESIAN_POINT('',(143.2,-39.5,1.6));
#94=VERTEX_POINT('',#93);
#95=CARTESIAN_POINT('',(143.2,-40.2,1.6));
#96=DIRECTION('',(-0.,-0.,-1.));
#97=DIRECTION('',(1.,0.,-0.));
#98=AXIS2_PLACEMENT_3D('',#95,#96,#97);
#99=CIRCLE('',#98,0.7);
#100=EDGE_CURVE('',#86,#94,#99,.T.);
#101=ORIENTED_EDGE('',*,*,#100,.T.);
#102=CARTESIAN_POINT('',(165.500203212,-39.5,1.6));
#103=VERTEX_POINT('',#102);
#104=CARTESIAN_POINT('',(165.500203212,-39.5,1.6));
#105=DIRECTION('',(-1.,-0.,0.));
#106=VECTOR('',#105,22.300203212);
#107=LINE('',#104,#106);
#108=EDGE_CURVE('',#103,#94,#107,.T.);
#109=ORIENTED_EDGE('',*,*,#108,.F.);
#110=CARTESIAN_POINT('',(166.000203212,-39.799679283,1.6));
#111=VERTEX_POINT('',#110);
#112=CARTESIAN_POINT('',(166.019818455,-39.2,1.6));
#113=DIRECTION('',(0.,0.,1.));
#114=DIRECTION('',(1.,0.,-0.));
#115=AXIS2_PLACEMENT_3D('',#112,#113,#114);
#116=CIRCLE('',#115,0.6);
#117=EDGE_CURVE('',#103,#111,#116,.T.);
#118=ORIENTED_EDGE('',*,*,#117,.T.);
#119=CARTESIAN_POINT('',(166.000203212,-42.5,1.6));
#120=VERTEX_POINT('',#119);
#121=CARTESIAN_POINT('',(166.000203212,-39.799679283,1.6));
#122=DIRECTION('',(0.,-1.,0.));
#123=VECTOR('',#122,2.700320717);
#124=LINE('',#121,#123);
#125=EDGE_CURVE('',#111,#120,#124,.T.);
#126=ORIENTED_EDGE('',*,*,#125,.T.);
#127=CARTESIAN_POINT('',(145.5,-42.5,1.6));
#128=VERTEX_POINT('',#127);
#129=CARTESIAN_POINT('',(166.000203212,-42.5,1.6));
#130=DIRECTION('',(-1.,-0.,0.));
#131=VECTOR('',#130,20.500203212);
#132=LINE('',#129,#131);
#133=EDGE_CURVE('',#120,#128,#132,.T.);
#134=ORIENTED_EDGE('',*,*,#133,.T.);
#135=CARTESIAN_POINT('',(145.5,-117.5,1.6));
#136=VERTEX_POINT('',#135);
#137=CARTESIAN_POINT('',(145.5,-42.5,1.6));
#138=DIRECTION('',(0.,-1.,0.));
#139=VECTOR('',#138,75.);
#140=LINE('',#137,#139);
#141=EDGE_CURVE('',#128,#136,#140,.T.);
#142=ORIENTED_EDGE('',*,*,#141,.T.);
#143=CARTESIAN_POINT('',(274.5,-117.5,1.6));
#144=VERTEX_POINT('',#143);
#145=CARTESIAN_POINT('',(145.5,-117.5,1.6));
#146=DIRECTION('',(1.,0.,-0.));
#147=VECTOR('',#146,129.);
#148=LINE('',#145,#147);
#149=EDGE_CURVE('',#136,#144,#148,.T.);
#150=ORIENTED_EDGE('',*,*,#149,.T.);
#151=CARTESIAN_POINT('',(274.5,-42.5,1.6));
#152=VERTEX_POINT('',#151);
#153=CARTESIAN_POINT('',(274.5,-117.5,1.6));
#154=DIRECTION('',(0.,1.,0.));
#155=VECTOR('',#154,75.);
#156=LINE('',#153,#155);
#157=EDGE_CURVE('',#144,#152,#156,.T.);
#158=ORIENTED_EDGE('',*,*,#157,.T.);
#159=CARTESIAN_POINT('',(177.003251393,-42.5,1.6));
#160=VERTEX_POINT('',#159);
#161=CARTESIAN_POINT('',(274.5,-42.5,1.6));
#162=DIRECTION('',(-1.,-0.,0.));
#163=VECTOR('',#162,97.496748607);
#164=LINE('',#161,#163);
#165=EDGE_CURVE('',#152,#160,#164,.T.);
#166=ORIENTED_EDGE('',*,*,#165,.T.);
#167=CARTESIAN_POINT('',(177.003251393,-39.799679283,1.6));
#168=VERTEX_POINT('',#167);
#169=CARTESIAN_POINT('',(177.003251393,-39.799679283,1.6));
#170=DIRECTION('',(0.,-1.,0.));
#171=VECTOR('',#170,2.700320717);
#172=LINE('',#169,#171);
#173=EDGE_CURVE('',#168,#160,#172,.T.);
#174=ORIENTED_EDGE('',*,*,#173,.F.);
#175=CARTESIAN_POINT('',(176.98363615,-39.2,1.6));
#176=DIRECTION('',(0.,0.,1.));
#177=DIRECTION('',(1.,0.,-0.));
#178=AXIS2_PLACEMENT_3D('',#175,#176,#177);
#179=CIRCLE('',#178,0.6);
#180=EDGE_CURVE('',#168,#35,#179,.T.);
#181=ORIENTED_EDGE('',*,*,#180,.T.);
#182=EDGE_LOOP('',(#41,#50,#58,#67,#75,#84,#92,#101,#109,#118,#126,#134,#142,#150,#158,#166,#174,#181));
#183=FACE_BOUND('',#182,.T.);
#184=ADVANCED_FACE('',(#183),#31,.F.);
#185=CARTESIAN_POINT('',(177.001727303,-37.8,4.599999613));
#186=DIRECTION('',(0.999999871,0.,0.00050803));
#187=DIRECTION('',(0.00050803,0.,-0.999999871));
#188=AXIS2_PLACEMENT_3D('',#185,#186,#187);
#189=PLANE('',#188);
#190=CARTESIAN_POINT('',(177.000203212,-39.799771171,7.599999226));
#191=VERTEX_POINT('',#190);
#192=CARTESIAN_POINT('',(177.000203212,-42.5,7.599999226));
#193=VERTEX_POINT('',#192);
#194=CARTESIAN_POINT('',(177.000203212,-39.799771171,7.599999226));
#195=DIRECTION('',(0.,-1.,0.));
#196=VECTOR('',#195,2.700228829);
#197=LINE('',#194,#196);
#198=EDGE_CURVE('',#191,#193,#197,.T.);
#199=ORIENTED_EDGE('',*,*,#198,.F.);
#200=CARTESIAN_POINT('',(177.000203292,-39.799771231,7.599843234));
#201=VERTEX_POINT('',#200);
#202=CARTESIAN_POINT('',(177.000203212,-39.799771171,7.599999226));
#203=CARTESIAN_POINT('',(177.000203239,-39.799771211,7.599947228));
#204=CARTESIAN_POINT('',(177.000203265,-39.799771231,7.599895231));
#205=CARTESIAN_POINT('',(177.000203292,-39.799771231,7.599843234));
#206=B_SPLINE_CURVE_WITH_KNOTS('',3,(#202,#203,#204,#205),.UNSPECIFIED.,.F.,.F.,(4,4),(0.,0.000000156),.UNSPECIFIED.);
#207=EDGE_CURVE('',#191,#201,#206,.T.);
#208=ORIENTED_EDGE('',*,*,#207,.T.);
#209=CARTESIAN_POINT('',(176.98363615,-39.2,40.210393797));
#210=DIRECTION('',(0.999999871,0.,0.00050803));
#211=DIRECTION('',(-0.00050803,-0.,0.999999871));
#212=AXIS2_PLACEMENT_3D('',#209,#210,#211);
#213=ELLIPSE('',#212,1181.032533177,0.6);
#214=EDGE_CURVE('',#201,#168,#213,.T.);
#215=ORIENTED_EDGE('',*,*,#214,.T.);
#216=ORIENTED_EDGE('',*,*,#173,.T.);
#217=CARTESIAN_POINT('',(177.003251393,-42.5,1.6));
#218=DIRECTION('',(-0.00050803,-0.,0.999999871));
#219=VECTOR('',#218,6.);
#220=LINE('',#217,#219);
#221=EDGE_CURVE('',#160,#193,#220,.T.);
#222=ORIENTED_EDGE('',*,*,#221,.T.);
#223=EDGE_LOOP('',(#199,#208,#215,#216,#222));
#224=FACE_BOUND('',#223,.T.);
#225=ADVANCED_FACE('',(#224),#189,.F.);
#226=CARTESIAN_POINT('',(166.000203212,-37.8,4.599999613));
#227=DIRECTION('',(-1.,-0.,0.));
#228=DIRECTION('',(0.,-1.,0.));
#229=AXIS2_PLACEMENT_3D('',#226,#227,#228);
#230=PLANE('',#229);
#231=ORIENTED_EDGE('',*,*,#125,.F.);
#232=CARTESIAN_POINT('',(166.000203212,-39.799679283,7.599999226));
#233=VERTEX_POINT('',#232);
#234=CARTESIAN_POINT('',(166.000203212,-39.799679283,1.6));
#235=DIRECTION('',(-0.,-0.,1.));
#236=VECTOR('',#235,5.999999226);
#237=LINE('',#234,#236);
#238=EDGE_CURVE('',#111,#233,#237,.T.);
#239=ORIENTED_EDGE('',*,*,#238,.T.);
#240=CARTESIAN_POINT('',(166.000203212,-42.5,7.599999226));
#241=VERTEX_POINT('',#240);
#242=CARTESIAN_POINT('',(166.000203212,-39.799679283,7.599999226));
#243=DIRECTION('',(0.,-1.,0.));
#244=VECTOR('',#243,2.700320717);
#245=LINE('',#242,#244);
#246=EDGE_CURVE('',#233,#241,#245,.T.);
#247=ORIENTED_EDGE('',*,*,#246,.T.);
#248=CARTESIAN_POINT('',(166.000203212,-42.5,7.599999226));
#249=DIRECTION('',(0.,0.,-1.));
#250=VECTOR('',#249,5.999999226);
#251=LINE('',#248,#250);
#252=EDGE_CURVE('',#241,#120,#251,.T.);
#253=ORIENTED_EDGE('',*,*,#252,.T.);
#254=EDGE_LOOP('',(#231,#239,#247,#253));
#255=FACE_BOUND('',#254,.T.);
#256=ADVANCED_FACE('',(#255),#230,.F.);
#257=CARTESIAN_POINT('',(171.500203212,-37.8,7.599999226));
#258=DIRECTION('',(-0.,-0.,1.));
#259=DIRECTION('',(1.,0.,0.));
#260=AXIS2_PLACEMENT_3D('',#257,#258,#259);
#261=PLANE('',#260);
#262=CARTESIAN_POINT('',(166.019818455,-39.8,7.599999226));
#263=VERTEX_POINT('',#262);
#264=CARTESIAN_POINT('',(176.983636153,-39.799999937,7.599999226));
#265=VERTEX_POINT('',#264);
#266=CARTESIAN_POINT('',(166.019818455,-39.8,7.599992808));
#267=CARTESIAN_POINT('',(169.674424354,-39.8,7.599992808));
#268=CARTESIAN_POINT('',(173.329030253,-39.799999977,7.599999226));
#269=CARTESIAN_POINT('',(176.983636153,-39.799999937,7.599999226));
#270=B_SPLINE_CURVE_WITH_KNOTS('',3,(#266,#267,#268,#269),.UNSPECIFIED.,.F.,.F.,(4,4),(0.,0.010963818),.UNSPECIFIED.);
#271=EDGE_CURVE('',#263,#265,#270,.T.);
#272=ORIENTED_EDGE('',*,*,#271,.T.);
#273=CARTESIAN_POINT('',(176.983636153,-39.799999937,7.599999226));
#274=CARTESIAN_POINT('',(176.989159559,-39.799999937,7.599999226));
#275=CARTESIAN_POINT('',(176.994681912,-39.799923682,7.599999226));
#276=CARTESIAN_POINT('',(177.000203212,-39.799771171,7.599999226));
#277=B_SPLINE_CURVE_WITH_KNOTS('',3,(#273,#274,#275,#276),.UNSPECIFIED.,.F.,.F.,(4,4),(0.,0.000016569),.UNSPECIFIED.);
#278=EDGE_CURVE('',#265,#191,#277,.T.);
#279=ORIENTED_EDGE('',*,*,#278,.T.);
#280=ORIENTED_EDGE('',*,*,#198,.T.);
#281=CARTESIAN_POINT('',(177.000203212,-42.5,7.599999226));
#282=DIRECTION('',(-1.,-0.,-0.));
#283=VECTOR('',#282,11.);
#284=LINE('',#281,#283);
#285=EDGE_CURVE('',#193,#241,#284,.T.);
#286=ORIENTED_EDGE('',*,*,#285,.T.);
#287=ORIENTED_EDGE('',*,*,#246,.F.);
#288=CARTESIAN_POINT('',(166.019818455,-39.2,7.599999226));
#289=DIRECTION('',(-0.,-0.,1.));
#290=DIRECTION('',(1.,0.,0.));
#291=AXIS2_PLACEMENT_3D('',#288,#289,#290);
#292=CIRCLE('',#291,0.6);
#293=EDGE_CURVE('',#233,#263,#292,.T.);
#294=ORIENTED_EDGE('',*,*,#293,.T.);
#295=EDGE_LOOP('',(#272,#279,#280,#286,#287,#294));
#296=FACE_BOUND('',#295,.T.);
#297=ADVANCED_FACE('',(#296),#261,.F.);
#298=CARTESIAN_POINT('',(210.,-120.5,13.6));
#299=DIRECTION('',(0.,1.,0.));
#300=DIRECTION('',(0.,0.,1.));
#301=AXIS2_PLACEMENT_3D('',#298,#299,#300);
#302=PLANE('',#301);
#303=CARTESIAN_POINT('',(276.8,-120.5,9.4));
#304=VERTEX_POINT('',#303);
#305=CARTESIAN_POINT('',(276.8,-120.5,1.6));
#306=DIRECTION('',(-0.,-0.,1.));
#307=VECTOR('',#306,7.8);
#308=LINE('',#305,#307);
#309=EDGE_CURVE('',#60,#304,#308,.T.);
#310=ORIENTED_EDGE('',*,*,#309,.T.);
#311=CARTESIAN_POINT('',(143.2,-120.5,9.4));
#312=VERTEX_POINT('',#311);
#313=CARTESIAN_POINT('',(276.8,-120.5,9.4));
#314=DIRECTION('',(-1.,-0.,0.));
#315=VECTOR('',#314,133.6);
#316=LINE('',#313,#315);
#317=EDGE_CURVE('',#304,#312,#316,.T.);
#318=ORIENTED_EDGE('',*,*,#317,.T.);
#319=CARTESIAN_POINT('',(143.2,-120.5,9.4));
#320=DIRECTION('',(-0.,-0.,-1.));
#321=VECTOR('',#320,7.8);
#322=LINE('',#319,#321);
#323=EDGE_CURVE('',#312,#69,#322,.T.);
#324=ORIENTED_EDGE('',*,*,#323,.T.);
#325=ORIENTED_EDGE('',*,*,#74,.T.);
#326=EDGE_LOOP('',(#310,#318,#324,#325));
#327=FACE_BOUND('',#326,.T.);
#328=ADVANCED_FACE('',(#327),#302,.F.);
#329=CARTESIAN_POINT('',(277.5,-80.,13.6));
#330=DIRECTION('',(-1.,0.,0.));
#331=DIRECTION('',(0.,0.,1.));
#332=AXIS2_PLACEMENT_3D('',#329,#330,#331);
#333=PLANE('',#332);
#334=CARTESIAN_POINT('',(277.5,-40.2,9.4));
#335=VERTEX_POINT('',#334);
#336=CARTESIAN_POINT('',(277.5,-40.2,1.6));
#337=DIRECTION('',(-0.,-0.,1.));
#338=VECTOR('',#337,7.8);
#339=LINE('',#336,#338);
#340=EDGE_CURVE('',#43,#335,#339,.T.);
#341=ORIENTED_EDGE('',*,*,#340,.T.);
#342=CARTESIAN_POINT('',(277.5,-119.8,9.4));
#343=VERTEX_POINT('',#342);
#344=CARTESIAN_POINT('',(277.5,-40.2,9.4));
#345=DIRECTION('',(-0.,-1.,-0.));
#346=VECTOR('',#345,79.6);
#347=LINE('',#344,#346);
#348=EDGE_CURVE('',#335,#343,#347,.T.);
#349=ORIENTED_EDGE('',*,*,#348,.T.);
#350=CARTESIAN_POINT('',(277.5,-119.8,9.4));
#351=DIRECTION('',(0.,0.,-1.));
#352=VECTOR('',#351,7.8);
#353=LINE('',#350,#352);
#354=EDGE_CURVE('',#343,#52,#353,.T.);
#355=ORIENTED_EDGE('',*,*,#354,.T.);
#356=ORIENTED_EDGE('',*,*,#57,.T.);
#357=EDGE_LOOP('',(#341,#349,#355,#356));
#358=FACE_BOUND('',#357,.T.);
#359=ADVANCED_FACE('',(#358),#333,.F.);
#360=CARTESIAN_POINT('',(210.,-39.5,13.6));
#361=DIRECTION('',(0.,-1.,0.));
#362=DIRECTION('',(1.,0.,0.));
#363=AXIS2_PLACEMENT_3D('',#360,#361,#362);
#364=PLANE('',#363);
#365=CARTESIAN_POINT('',(143.2,-39.5,9.4));
#366=VERTEX_POINT('',#365);
#367=CARTESIAN_POINT('',(143.2,-39.5,1.6));
#368=DIRECTION('',(-0.,-0.,1.));
#369=VECTOR('',#368,7.8);
#370=LINE('',#367,#369);
#371=EDGE_CURVE('',#94,#366,#370,.T.);
#372=ORIENTED_EDGE('',*,*,#371,.T.);
#373=CARTESIAN_POINT('',(276.8,-39.5,9.4));
#374=VERTEX_POINT('',#373);
#375=CARTESIAN_POINT('',(143.2,-39.5,9.4));
#376=DIRECTION('',(1.,0.,-0.));
#377=VECTOR('',#376,133.6);
#378=LINE('',#375,#377);
#379=EDGE_CURVE('',#366,#374,#378,.T.);
#380=ORIENTED_EDGE('',*,*,#379,.T.);
#381=CARTESIAN_POINT('',(276.8,-39.5,9.4));
#382=DIRECTION('',(0.,0.,-1.));
#383=VECTOR('',#382,7.8);
#384=LINE('',#381,#383);
#385=EDGE_CURVE('',#374,#33,#384,.T.);
#386=ORIENTED_EDGE('',*,*,#385,.T.);
#387=ORIENTED_EDGE('',*,*,#40,.T.);
#388=CARTESIAN_POINT('',(177.503251393,-39.5,7.59982908));
#389=VERTEX_POINT('',#388);
#390=CARTESIAN_POINT('',(177.503251393,-39.5,1.6));
#391=DIRECTION('',(0.,0.,1.));
#392=VECTOR('',#391,5.99982908);
#393=LINE('',#390,#392);
#394=EDGE_CURVE('',#35,#389,#393,.T.);
#395=ORIENTED_EDGE('',*,*,#394,.T.);
#396=CARTESIAN_POINT('',(177.24821405,-39.5,7.799837404));
#397=VERTEX_POINT('',#396);
#398=CARTESIAN_POINT('',(177.503251393,-39.5,7.599836271));
#399=CARTESIAN_POINT('',(177.503251393,-39.5,7.660782815));
#400=CARTESIAN_POINT('',(177.469430583,-39.5,7.717753482));
#401=CARTESIAN_POINT('',(177.419588731,-39.5,7.752502378));
#402=CARTESIAN_POINT('',(177.394667806,-39.5,7.769876825));
#403=CARTESIAN_POINT('',(177.366514427,-39.5,7.781897165));
#404=CARTESIAN_POINT('',(177.337382215,-39.5,7.789378409));
#405=CARTESIAN_POINT('',(177.308250002,-39.5,7.796859654));
#406=CARTESIAN_POINT('',(177.278452042,-39.5,7.799836986));
#407=CARTESIAN_POINT('',(177.24821405,-39.5,7.799837404));
#408=B_SPLINE_CURVE_WITH_KNOTS('',3,(#398,#399,#400,#401,#402,#403,#404,#405,#406,#407),.UNSPECIFIED.,.F.,.F.,(4,3,3,4),(0.,0.000180113,0.000270169,0.000360226),.UNSPECIFIED.);
#409=EDGE_CURVE('',#389,#397,#408,.T.);
#410=ORIENTED_EDGE('',*,*,#409,.T.);
#411=CARTESIAN_POINT('',(165.755246092,-39.5,7.79999647));
#412=VERTEX_POINT('',#411);
#413=CARTESIAN_POINT('',(177.24821405,-39.5,7.799837404));
#414=DIRECTION('',(-1.,-0.,0.00001384));
#415=VECTOR('',#414,11.492967959);
#416=LINE('',#413,#415);
#417=EDGE_CURVE('',#397,#412,#416,.T.);
#418=ORIENTED_EDGE('',*,*,#417,.T.);
#419=CARTESIAN_POINT('',(165.500203212,-39.5,7.6));
#420=VERTEX_POINT('',#419);
#421=CARTESIAN_POINT('',(165.755246092,-39.5,7.79999647));
#422=CARTESIAN_POINT('',(165.694709579,-39.5,7.799997308));
#423=CARTESIAN_POINT('',(165.633663854,-39.5,7.787422715));
#424=CARTESIAN_POINT('',(165.583766306,-39.5,7.752593785));
#425=CARTESIAN_POINT('',(165.558817533,-39.5,7.735179321));
#426=CARTESIAN_POINT('',(165.537958159,-39.5,7.713030371));
#427=CARTESIAN_POINT('',(165.523154463,-39.5,7.686684218));
#428=CARTESIAN_POINT('',(165.508350767,-39.5,7.660338065));
#429=CARTESIAN_POINT('',(165.500203635,-39.5,7.630526653));
#430=CARTESIAN_POINT('',(165.500203212,-39.5,7.6));
#431=B_SPLINE_CURVE_WITH_KNOTS('',3,(#421,#422,#423,#424,#425,#426,#427,#428,#429,#430),.UNSPECIFIED.,.F.,.F.,(4,3,3,4),(0.,0.000179986,0.000269979,0.000359971),.UNSPECIFIED.);
#432=EDGE_CURVE('',#412,#420,#431,.T.);
#433=ORIENTED_EDGE('',*,*,#432,.T.);
#434=CARTESIAN_POINT('',(165.500203212,-39.5,7.6));
#435=DIRECTION('',(0.,0.,-1.));
#436=VECTOR('',#435,6.);
#437=LINE('',#434,#436);
#438=EDGE_CURVE('',#420,#103,#437,.T.);
#439=ORIENTED_EDGE('',*,*,#438,.T.);
#440=ORIENTED_EDGE('',*,*,#108,.T.);
#441=EDGE_LOOP('',(#372,#380,#386,#387,#395,#410,#418,#433,#439,#440));
#442=FACE_BOUND('',#441,.T.);
#443=ADVANCED_FACE('',(#442),#364,.F.);
#444=CARTESIAN_POINT('',(274.5,-80.,13.6));
#445=DIRECTION('',(-1.,0.,0.));
#446=DIRECTION('',(0.,0.,1.));
#447=AXIS2_PLACEMENT_3D('',#444,#445,#446);
#448=PLANE('',#447);
#449=CARTESIAN_POINT('',(274.5,-117.5,9.8));
#450=VERTEX_POINT('',#449);
#451=CARTESIAN_POINT('',(274.5,-117.5,9.8));
#452=DIRECTION('',(0.,0.,-1.));
#453=VECTOR('',#452,8.2);
#454=LINE('',#451,#453);
#455=EDGE_CURVE('',#450,#144,#454,.T.);
#456=ORIENTED_EDGE('',*,*,#455,.F.);
#457=CARTESIAN_POINT('',(274.5,-42.5,9.8));
#458=VERTEX_POINT('',#457);
#459=CARTESIAN_POINT('',(274.5,-117.5,9.8));
#460=DIRECTION('',(0.,1.,0.));
#461=VECTOR('',#460,75.);
#462=LINE('',#459,#461);
#463=EDGE_CURVE('',#450,#458,#462,.T.);
#464=ORIENTED_EDGE('',*,*,#463,.T.);
#465=CARTESIAN_POINT('',(274.5,-42.5,9.8));
#466=DIRECTION('',(0.,0.,-1.));
#467=VECTOR('',#466,8.2);
#468=LINE('',#465,#467);
#469=EDGE_CURVE('',#458,#152,#468,.T.);
#470=ORIENTED_EDGE('',*,*,#469,.T.);
#471=ORIENTED_EDGE('',*,*,#157,.F.);
#472=EDGE_LOOP('',(#456,#464,#470,#471));
#473=FACE_BOUND('',#472,.T.);
#474=ADVANCED_FACE('',(#473),#448,.T.);
#475=CARTESIAN_POINT('',(210.,-117.5,13.6));
#476=DIRECTION('',(0.,1.,0.));
#477=DIRECTION('',(0.,0.,1.));
#478=AXIS2_PLACEMENT_3D('',#475,#476,#477);
#479=PLANE('',#478);
#480=CARTESIAN_POINT('',(145.5,-117.5,9.8));
#481=VERTEX_POINT('',#480);
#482=CARTESIAN_POINT('',(145.5,-117.5,9.8));
#483=DIRECTION('',(0.,0.,-1.));
#484=VECTOR('',#483,8.2);
#485=LINE('',#482,#484);
#486=EDGE_CURVE('',#481,#136,#485,.T.);
#487=ORIENTED_EDGE('',*,*,#486,.F.);
#488=CARTESIAN_POINT('',(145.5,-117.5,9.8));
#489=DIRECTION('',(1.,0.,-0.));
#490=VECTOR('',#489,129.);
#491=LINE('',#488,#490);
#492=EDGE_CURVE('',#481,#450,#491,.T.);
#493=ORIENTED_EDGE('',*,*,#492,.T.);
#494=ORIENTED_EDGE('',*,*,#455,.T.);
#495=ORIENTED_EDGE('',*,*,#149,.F.);
#496=EDGE_LOOP('',(#487,#493,#494,#495));
#497=FACE_BOUND('',#496,.T.);
#498=ADVANCED_FACE('',(#497),#479,.T.);
#499=CARTESIAN_POINT('',(145.5,-80.,13.6));
#500=DIRECTION('',(1.,0.,0.));
#501=DIRECTION('',(0.,0.,-1.));
#502=AXIS2_PLACEMENT_3D('',#499,#500,#501);
#503=PLANE('',#502);
#504=CARTESIAN_POINT('',(145.5,-42.5,9.8));
#505=VERTEX_POINT('',#504);
#506=CARTESIAN_POINT('',(145.5,-42.5,9.8));
#507=DIRECTION('',(0.,0.,-1.));
#508=VECTOR('',#507,8.2);
#509=LINE('',#506,#508);
#510=EDGE_CURVE('',#505,#128,#509,.T.);
#511=ORIENTED_EDGE('',*,*,#510,.F.);
#512=CARTESIAN_POINT('',(145.5,-42.5,9.8));
#513=DIRECTION('',(0.,-1.,0.));
#514=VECTOR('',#513,75.);
#515=LINE('',#512,#514);
#516=EDGE_CURVE('',#505,#481,#515,.T.);
#517=ORIENTED_EDGE('',*,*,#516,.T.);
#518=ORIENTED_EDGE('',*,*,#486,.T.);
#519=ORIENTED_EDGE('',*,*,#141,.F.);
#520=EDGE_LOOP('',(#511,#517,#518,#519));
#521=FACE_BOUND('',#520,.T.);
#522=ADVANCED_FACE('',(#521),#503,.T.);
#523=CARTESIAN_POINT('',(210.,-42.5,13.6));
#524=DIRECTION('',(0.,-1.,0.));
#525=DIRECTION('',(1.,0.,0.));
#526=AXIS2_PLACEMENT_3D('',#523,#524,#525);
#527=PLANE('',#526);
#528=ORIENTED_EDGE('',*,*,#469,.F.);
#529=CARTESIAN_POINT('',(274.5,-42.5,9.8));
#530=DIRECTION('',(-1.,-0.,0.));
#531=VECTOR('',#530,129.);
#532=LINE('',#529,#531);
#533=EDGE_CURVE('',#458,#505,#532,.T.);
#534=ORIENTED_EDGE('',*,*,#533,.T.);
#535=ORIENTED_EDGE('',*,*,#510,.T.);
#536=ORIENTED_EDGE('',*,*,#133,.F.);
#537=ORIENTED_EDGE('',*,*,#252,.F.);
#538=ORIENTED_EDGE('',*,*,#285,.F.);
#539=ORIENTED_EDGE('',*,*,#221,.F.);
#540=ORIENTED_EDGE('',*,*,#165,.F.);
#541=EDGE_LOOP('',(#528,#534,#535,#536,#537,#538,#539,#540));
#542=FACE_BOUND('',#541,.T.);
#543=ADVANCED_FACE('',(#542),#527,.T.);
#544=CARTESIAN_POINT('',(142.5,-80.,13.6));
#545=DIRECTION('',(1.,0.,0.));
#546=DIRECTION('',(0.,0.,-1.));
#547=AXIS2_PLACEMENT_3D('',#544,#545,#546);
#548=PLANE('',#547);
#549=CARTESIAN_POINT('',(142.5,-119.8,9.4));
#550=VERTEX_POINT('',#549);
#551=CARTESIAN_POINT('',(142.5,-119.8,1.6));
#552=DIRECTION('',(0.,0.,1.));
#553=VECTOR('',#552,7.8);
#554=LINE('',#551,#553);
#555=EDGE_CURVE('',#77,#550,#554,.T.);
#556=ORIENTED_EDGE('',*,*,#555,.T.);
#557=CARTESIAN_POINT('',(142.5,-40.2,9.4));
#558=VERTEX_POINT('',#557);
#559=CARTESIAN_POINT('',(142.5,-119.8,9.4));
#560=DIRECTION('',(-0.,1.,-0.));
#561=VECTOR('',#560,79.6);
#562=LINE('',#559,#561);
#563=EDGE_CURVE('',#550,#558,#562,.T.);
#564=ORIENTED_EDGE('',*,*,#563,.T.);
#565=CARTESIAN_POINT('',(142.5,-40.2,9.4));
#566=DIRECTION('',(0.,0.,-1.));
#567=VECTOR('',#566,7.8);
#568=LINE('',#565,#567);
#569=EDGE_CURVE('',#558,#86,#568,.T.);
#570=ORIENTED_EDGE('',*,*,#569,.T.);
#571=ORIENTED_EDGE('',*,*,#91,.T.);
#572=EDGE_LOOP('',(#556,#564,#570,#571));
#573=FACE_BOUND('',#572,.T.);
#574=ADVANCED_FACE('',(#573),#548,.F.);
#575=CARTESIAN_POINT('',(0.,0.,10.1));
#576=DIRECTION('',(0.,0.,1.));
#577=DIRECTION('',(1.,0.,0.));
#578=AXIS2_PLACEMENT_3D('',#575,#576,#577);
#579=PLANE('',#578);
#580=CARTESIAN_POINT('',(276.8,-119.8,10.1));
#581=VERTEX_POINT('',#580);
#582=CARTESIAN_POINT('',(276.8,-40.2,10.1));
#583=VERTEX_POINT('',#582);
#584=CARTESIAN_POINT('',(276.8,-119.8,10.1));
#585=DIRECTION('',(0.,1.,0.));
#586=VECTOR('',#585,79.6);
#587=LINE('',#584,#586);
#588=EDGE_CURVE('',#581,#583,#587,.T.);
#589=ORIENTED_EDGE('',*,*,#588,.T.);
#590=CARTESIAN_POINT('',(143.2,-40.2,10.1));
#591=VERTEX_POINT('',#590);
#592=CARTESIAN_POINT('',(276.8,-40.2,10.1));
#593=DIRECTION('',(-1.,-0.,0.));
#594=VECTOR('',#593,133.6);
#595=LINE('',#592,#594);
#596=EDGE_CURVE('',#583,#591,#595,.T.);
#597=ORIENTED_EDGE('',*,*,#596,.T.);
#598=CARTESIAN_POINT('',(143.2,-119.8,10.1));
#599=VERTEX_POINT('',#598);
#600=CARTESIAN_POINT('',(143.2,-40.2,10.1));
#601=DIRECTION('',(0.,-1.,0.));
#602=VECTOR('',#601,79.6);
#603=LINE('',#600,#602);
#604=EDGE_CURVE('',#591,#599,#603,.T.);
#605=ORIENTED_EDGE('',*,*,#604,.T.);
#606=CARTESIAN_POINT('',(143.2,-119.8,10.1));
#607=DIRECTION('',(1.,0.,-0.));
#608=VECTOR('',#607,133.6);
#609=LINE('',#606,#608);
#610=EDGE_CURVE('',#599,#581,#609,.T.);
#611=ORIENTED_EDGE('',*,*,#610,.T.);
#612=EDGE_LOOP('',(#589,#597,#605,#611));
#613=FACE_BOUND('',#612,.T.);
#614=CARTESIAN_POINT('',(274.8,-117.8,10.1));
#615=VERTEX_POINT('',#614);
#616=CARTESIAN_POINT('',(145.2,-117.8,10.1));
#617=VERTEX_POINT('',#616);
#618=CARTESIAN_POINT('',(274.8,-117.8,10.1));
#619=DIRECTION('',(-1.,-0.,0.));
#620=VECTOR('',#619,129.6);
#621=LINE('',#618,#620);
#622=EDGE_CURVE('',#615,#617,#621,.T.);
#623=ORIENTED_EDGE('',*,*,#622,.T.);
#624=CARTESIAN_POINT('',(145.2,-42.2,10.1));
#625=VERTEX_POINT('',#624);
#626=CARTESIAN_POINT('',(145.2,-117.8,10.1));
#627=DIRECTION('',(-0.,1.,-0.));
#628=VECTOR('',#627,75.6);
#629=LINE('',#626,#628);
#630=EDGE_CURVE('',#617,#625,#629,.T.);
#631=ORIENTED_EDGE('',*,*,#630,.T.);
#632=CARTESIAN_POINT('',(274.8,-42.2,10.1));
#633=VERTEX_POINT('',#632);
#634=CARTESIAN_POINT('',(145.2,-42.2,10.1));
#635=DIRECTION('',(1.,0.,-0.));
#636=VECTOR('',#635,129.6);
#637=LINE('',#634,#636);
#638=EDGE_CURVE('',#625,#633,#637,.T.);
#639=ORIENTED_EDGE('',*,*,#638,.T.);
#640=CARTESIAN_POINT('',(274.8,-42.2,10.1));
#641=DIRECTION('',(-0.,-1.,-0.));
#642=VECTOR('',#641,75.6);
#643=LINE('',#640,#642);
#644=EDGE_CURVE('',#633,#615,#643,.T.);
#645=ORIENTED_EDGE('',*,*,#644,.T.);
#646=EDGE_LOOP('',(#623,#631,#639,#645));
#647=FACE_BOUND('',#646,.T.);
#648=ADVANCED_FACE('',(#613,#647),#579,.T.);
#649=CARTESIAN_POINT('',(171.501727303,-39.8,7.799916937));
#650=DIRECTION('',(-0.00001384,-0.,-1.));
#651=DIRECTION('',(-1.,0.,0.00001384));
#652=AXIS2_PLACEMENT_3D('',#649,#650,#651);
#653=PLANE('',#652);
#654=CARTESIAN_POINT('',(176.983638919,-39.6,7.799841066));
#655=VERTEX_POINT('',#654);
#656=CARTESIAN_POINT('',(166.019821223,-39.6,7.799992808));
#657=VERTEX_POINT('',#656);
#658=CARTESIAN_POINT('',(176.983638919,-39.6,7.799841066));
#659=DIRECTION('',(-1.,-0.,0.00001384));
#660=VECTOR('',#659,10.963817697);
#661=LINE('',#658,#660);
#662=EDGE_CURVE('',#655,#657,#661,.T.);
#663=ORIENTED_EDGE('',*,*,#662,.T.);
#664=CARTESIAN_POINT('',(166.019821223,-39.2,7.799992808));
#665=DIRECTION('',(-0.00001384,-0.,-1.));
#666=DIRECTION('',(-1.,0.,0.00001384));
#667=AXIS2_PLACEMENT_3D('',#664,#665,#666);
#668=CIRCLE('',#667,0.4);
#669=EDGE_CURVE('',#657,#412,#668,.T.);
#670=ORIENTED_EDGE('',*,*,#669,.T.);
#671=ORIENTED_EDGE('',*,*,#417,.F.);
#672=CARTESIAN_POINT('',(176.983638918,-39.2,7.799841066));
#673=DIRECTION('',(-0.00001384,-0.,-1.));
#674=DIRECTION('',(-1.,0.,0.00001384));
#675=AXIS2_PLACEMENT_3D('',#672,#673,#674);
#676=CIRCLE('',#675,0.4);
#677=EDGE_CURVE('',#397,#655,#676,.T.);
#678=ORIENTED_EDGE('',*,*,#677,.T.);
#679=EDGE_LOOP('',(#663,#670,#671,#678));
#680=FACE_BOUND('',#679,.T.);
#681=ADVANCED_FACE('',(#680),#653,.T.);
#682=CARTESIAN_POINT('',(143.2,-40.2,13.6));
#683=DIRECTION('',(0.,0.,-1.));
#684=DIRECTION('',(-1.,0.,0.));
#685=AXIS2_PLACEMENT_3D('',#682,#683,#684);
#686=CYLINDRICAL_SURFACE('',#685,0.7);
#687=ORIENTED_EDGE('',*,*,#569,.F.);
#688=CARTESIAN_POINT('',(143.2,-40.2,9.4));
#689=DIRECTION('',(0.,0.,-1.));
#690=DIRECTION('',(-1.,0.,0.));
#691=AXIS2_PLACEMENT_3D('',#688,#689,#690);
#692=CIRCLE('',#691,0.7);
#693=EDGE_CURVE('',#558,#366,#692,.T.);
#694=ORIENTED_EDGE('',*,*,#693,.T.);
#695=ORIENTED_EDGE('',*,*,#371,.F.);
#696=ORIENTED_EDGE('',*,*,#100,.F.);
#697=EDGE_LOOP('',(#687,#694,#695,#696));
#698=FACE_BOUND('',#697,.T.);
#699=ADVANCED_FACE('',(#698),#686,.T.);
#700=CARTESIAN_POINT('',(143.2,-119.8,13.6));
#701=DIRECTION('',(0.,0.,1.));
#702=DIRECTION('',(1.,0.,-0.));
#703=AXIS2_PLACEMENT_3D('',#700,#701,#702);
#704=CYLINDRICAL_SURFACE('',#703,0.7);
#705=ORIENTED_EDGE('',*,*,#323,.F.);
#706=CARTESIAN_POINT('',(143.2,-119.8,9.4));
#707=DIRECTION('',(-0.,-0.,-1.));
#708=DIRECTION('',(1.,0.,-0.));
#709=AXIS2_PLACEMENT_3D('',#706,#707,#708);
#710=CIRCLE('',#709,0.7);
#711=EDGE_CURVE('',#312,#550,#710,.T.);
#712=ORIENTED_EDGE('',*,*,#711,.T.);
#713=ORIENTED_EDGE('',*,*,#555,.F.);
#714=ORIENTED_EDGE('',*,*,#83,.F.);
#715=EDGE_LOOP('',(#705,#712,#713,#714));
#716=FACE_BOUND('',#715,.T.);
#717=ADVANCED_FACE('',(#716),#704,.T.);
#718=CARTESIAN_POINT('',(276.8,-119.8,13.6));
#719=DIRECTION('',(0.,0.,-1.));
#720=DIRECTION('',(-1.,0.,0.));
#721=AXIS2_PLACEMENT_3D('',#718,#719,#720);
#722=CYLINDRICAL_SURFACE('',#721,0.7);
#723=ORIENTED_EDGE('',*,*,#354,.F.);
#724=CARTESIAN_POINT('',(276.8,-119.8,9.4));
#725=DIRECTION('',(0.,0.,-1.));
#726=DIRECTION('',(-1.,0.,0.));
#727=AXIS2_PLACEMENT_3D('',#724,#725,#726);
#728=CIRCLE('',#727,0.7);
#729=EDGE_CURVE('',#343,#304,#728,.T.);
#730=ORIENTED_EDGE('',*,*,#729,.T.);
#731=ORIENTED_EDGE('',*,*,#309,.F.);
#732=ORIENTED_EDGE('',*,*,#66,.F.);
#733=EDGE_LOOP('',(#723,#730,#731,#732));
#734=FACE_BOUND('',#733,.T.);
#735=ADVANCED_FACE('',(#734),#722,.T.);
#736=CARTESIAN_POINT('',(276.8,-40.2,13.6));
#737=DIRECTION('',(0.,0.,-1.));
#738=DIRECTION('',(-1.,0.,0.));
#739=AXIS2_PLACEMENT_3D('',#736,#737,#738);
#740=CYLINDRICAL_SURFACE('',#739,0.7);
#741=ORIENTED_EDGE('',*,*,#385,.F.);
#742=CARTESIAN_POINT('',(276.8,-40.2,9.4));
#743=DIRECTION('',(0.,0.,-1.));
#744=DIRECTION('',(-1.,0.,0.));
#745=AXIS2_PLACEMENT_3D('',#742,#743,#744);
#746=CIRCLE('',#745,0.7);
#747=EDGE_CURVE('',#374,#335,#746,.T.);
#748=ORIENTED_EDGE('',*,*,#747,.T.);
#749=ORIENTED_EDGE('',*,*,#340,.F.);
#750=ORIENTED_EDGE('',*,*,#49,.F.);
#751=EDGE_LOOP('',(#741,#748,#749,#750));
#752=FACE_BOUND('',#751,.T.);
#753=ADVANCED_FACE('',(#752),#740,.T.);
#754=CARTESIAN_POINT('',(276.8,-119.8,9.4));
#755=DIRECTION('',(0.,0.,1.));
#756=DIRECTION('',(1.,0.,-0.));
#757=AXIS2_PLACEMENT_3D('',#754,#755,#756);
#758=SPHERICAL_SURFACE('',#757,0.7);
#759=CARTESIAN_POINT('',(276.8,-119.8,9.4));
#760=DIRECTION('',(-1.,0.,0.));
#761=DIRECTION('',(0.,0.,1.));
#762=AXIS2_PLACEMENT_3D('',#759,#760,#761);
#763=CIRCLE('',#762,0.7);
#764=EDGE_CURVE('',#304,#581,#763,.T.);
#765=ORIENTED_EDGE('',*,*,#764,.F.);
#766=ORIENTED_EDGE('',*,*,#729,.F.);
#767=CARTESIAN_POINT('',(276.8,-119.8,9.4));
#768=DIRECTION('',(0.,1.,0.));
#769=DIRECTION('',(0.,-0.,1.));
#770=AXIS2_PLACEMENT_3D('',#767,#768,#769);
#771=CIRCLE('',#770,0.7);
#772=EDGE_CURVE('',#581,#343,#771,.T.);
#773=ORIENTED_EDGE('',*,*,#772,.F.);
#774=EDGE_LOOP('',(#765,#766,#773));
#775=FACE_BOUND('',#774,.T.);
#776=ADVANCED_FACE('',(#775),#758,.T.);
#777=CARTESIAN_POINT('',(276.8,0.,9.4));
#778=DIRECTION('',(0.,-1.,0.));
#779=DIRECTION('',(0.,0.,-1.));
#780=AXIS2_PLACEMENT_3D('',#777,#778,#779);
#781=CYLINDRICAL_SURFACE('',#780,0.7);
#782=ORIENTED_EDGE('',*,*,#772,.T.);
#783=ORIENTED_EDGE('',*,*,#348,.F.);
#784=CARTESIAN_POINT('',(276.8,-40.2,9.4));
#785=DIRECTION('',(0.,1.,0.));
#786=DIRECTION('',(0.,-0.,1.));
#787=AXIS2_PLACEMENT_3D('',#784,#785,#786);
#788=CIRCLE('',#787,0.7);
#789=EDGE_CURVE('',#583,#335,#788,.T.);
#790=ORIENTED_EDGE('',*,*,#789,.F.);
#791=ORIENTED_EDGE('',*,*,#588,.F.);
#792=EDGE_LOOP('',(#782,#783,#790,#791));
#793=FACE_BOUND('',#792,.T.);
#794=ADVANCED_FACE('',(#793),#781,.T.);
#795=CARTESIAN_POINT('',(0.,-119.8,9.4));
#796=DIRECTION('',(-1.,0.,0.));
#797=DIRECTION('',(0.,0.,1.));
#798=AXIS2_PLACEMENT_3D('',#795,#796,#797);
#799=CYLINDRICAL_SURFACE('',#798,0.7);
#800=ORIENTED_EDGE('',*,*,#764,.T.);
#801=ORIENTED_EDGE('',*,*,#610,.F.);
#802=CARTESIAN_POINT('',(143.2,-119.8,9.4));
#803=DIRECTION('',(-1.,0.,0.));
#804=DIRECTION('',(0.,0.,1.));
#805=AXIS2_PLACEMENT_3D('',#802,#803,#804);
#806=CIRCLE('',#805,0.7);
#807=EDGE_CURVE('',#312,#599,#806,.T.);
#808=ORIENTED_EDGE('',*,*,#807,.F.);
#809=ORIENTED_EDGE('',*,*,#317,.F.);
#810=EDGE_LOOP('',(#800,#801,#808,#809));
#811=FACE_BOUND('',#810,.T.);
#812=ADVANCED_FACE('',(#811),#799,.T.);
#813=CARTESIAN_POINT('',(276.8,-40.2,9.4));
#814=DIRECTION('',(0.,0.,1.));
#815=DIRECTION('',(1.,0.,-0.));
#816=AXIS2_PLACEMENT_3D('',#813,#814,#815);
#817=SPHERICAL_SURFACE('',#816,0.7);
#818=ORIENTED_EDGE('',*,*,#789,.T.);
#819=ORIENTED_EDGE('',*,*,#747,.F.);
#820=CARTESIAN_POINT('',(276.8,-40.2,9.4));
#821=DIRECTION('',(-1.,0.,0.));
#822=DIRECTION('',(0.,0.,1.));
#823=AXIS2_PLACEMENT_3D('',#820,#821,#822);
#824=CIRCLE('',#823,0.7);
#825=EDGE_CURVE('',#583,#374,#824,.T.);
#826=ORIENTED_EDGE('',*,*,#825,.F.);
#827=EDGE_LOOP('',(#818,#819,#826));
#828=FACE_BOUND('',#827,.T.);
#829=ADVANCED_FACE('',(#828),#817,.T.);
#830=CARTESIAN_POINT('',(143.2,-119.8,9.4));
#831=DIRECTION('',(0.,0.,1.));
#832=DIRECTION('',(1.,0.,-0.));
#833=AXIS2_PLACEMENT_3D('',#830,#831,#832);
#834=SPHERICAL_SURFACE('',#833,0.7);
#835=ORIENTED_EDGE('',*,*,#711,.F.);
#836=ORIENTED_EDGE('',*,*,#807,.T.);
#837=CARTESIAN_POINT('',(143.2,-119.8,9.4));
#838=DIRECTION('',(0.,1.,0.));
#839=DIRECTION('',(0.,-0.,1.));
#840=AXIS2_PLACEMENT_3D('',#837,#838,#839);
#841=CIRCLE('',#840,0.7);
#842=EDGE_CURVE('',#550,#599,#841,.T.);
#843=ORIENTED_EDGE('',*,*,#842,.F.);
#844=EDGE_LOOP('',(#835,#836,#843));
#845=FACE_BOUND('',#844,.T.);
#846=ADVANCED_FACE('',(#845),#834,.T.);
#847=CARTESIAN_POINT('',(0.,-40.2,9.4));
#848=DIRECTION('',(1.,0.,0.));
#849=DIRECTION('',(-0.,1.,0.));
#850=AXIS2_PLACEMENT_3D('',#847,#848,#849);
#851=CYLINDRICAL_SURFACE('',#850,0.7);
#852=ORIENTED_EDGE('',*,*,#825,.T.);
#853=ORIENTED_EDGE('',*,*,#379,.F.);
#854=CARTESIAN_POINT('',(143.2,-40.2,9.4));
#855=DIRECTION('',(-1.,0.,0.));
#856=DIRECTION('',(0.,0.,1.));
#857=AXIS2_PLACEMENT_3D('',#854,#855,#856);
#858=CIRCLE('',#857,0.7);
#859=EDGE_CURVE('',#591,#366,#858,.T.);
#860=ORIENTED_EDGE('',*,*,#859,.F.);
#861=ORIENTED_EDGE('',*,*,#596,.F.);
#862=EDGE_LOOP('',(#852,#853,#860,#861));
#863=FACE_BOUND('',#862,.T.);
#864=ADVANCED_FACE('',(#863),#851,.T.);
#865=CARTESIAN_POINT('',(143.2,0.,9.4));
#866=DIRECTION('',(0.,1.,0.));
#867=DIRECTION('',(0.,-0.,1.));
#868=AXIS2_PLACEMENT_3D('',#865,#866,#867);
#869=CYLINDRICAL_SURFACE('',#868,0.7);
#870=ORIENTED_EDGE('',*,*,#842,.T.);
#871=ORIENTED_EDGE('',*,*,#604,.F.);
#872=CARTESIAN_POINT('',(143.2,-40.2,9.4));
#873=DIRECTION('',(0.,1.,0.));
#874=DIRECTION('',(0.,-0.,1.));
#875=AXIS2_PLACEMENT_3D('',#872,#873,#874);
#876=CIRCLE('',#875,0.7);
#877=EDGE_CURVE('',#558,#591,#876,.T.);
#878=ORIENTED_EDGE('',*,*,#877,.F.);
#879=ORIENTED_EDGE('',*,*,#563,.F.);
#880=EDGE_LOOP('',(#870,#871,#878,#879));
#881=FACE_BOUND('',#880,.T.);
#882=ADVANCED_FACE('',(#881),#869,.T.);
#883=CARTESIAN_POINT('',(143.2,-40.2,9.4));
#884=DIRECTION('',(0.,0.,1.));
#885=DIRECTION('',(1.,0.,-0.));
#886=AXIS2_PLACEMENT_3D('',#883,#884,#885);
#887=SPHERICAL_SURFACE('',#886,0.7);
#888=ORIENTED_EDGE('',*,*,#859,.T.);
#889=ORIENTED_EDGE('',*,*,#693,.F.);
#890=ORIENTED_EDGE('',*,*,#877,.T.);
#891=EDGE_LOOP('',(#888,#889,#890));
#892=FACE_BOUND('',#891,.T.);
#893=ADVANCED_FACE('',(#892),#887,.T.);
#894=CARTESIAN_POINT('',(210.,-42.2,9.8));
#895=DIRECTION('',(-1.,-0.,0.));
#896=DIRECTION('',(0.,-1.,0.));
#897=AXIS2_PLACEMENT_3D('',#894,#895,#896);
#898=CYLINDRICAL_SURFACE('',#897,0.3);
#899=ORIENTED_EDGE('',*,*,#533,.F.);
#900=CARTESIAN_POINT('',(274.8,-42.2,9.8));
#901=DIRECTION('',(-0.707106781,0.707106781,0.));
#902=DIRECTION('',(0.707106781,0.707106781,0.));
#903=AXIS2_PLACEMENT_3D('',#900,#901,#902);
#904=ELLIPSE('',#903,0.424264069,0.3);
#905=EDGE_CURVE('',#458,#633,#904,.T.);
#906=ORIENTED_EDGE('',*,*,#905,.T.);
#907=ORIENTED_EDGE('',*,*,#638,.F.);
#908=CARTESIAN_POINT('',(145.2,-42.2,9.8));
#909=DIRECTION('',(0.707106781,0.707106781,-0.));
#910=DIRECTION('',(0.707106781,-0.707106781,0.));
#911=AXIS2_PLACEMENT_3D('',#908,#909,#910);
#912=ELLIPSE('',#911,0.424264069,0.3);
#913=EDGE_CURVE('',#625,#505,#912,.T.);
#914=ORIENTED_EDGE('',*,*,#913,.T.);
#915=EDGE_LOOP('',(#899,#906,#907,#914));
#916=FACE_BOUND('',#915,.T.);
#917=ADVANCED_FACE('',(#916),#898,.T.);
#918=CARTESIAN_POINT('',(274.8,-80.,9.8));
#919=DIRECTION('',(0.,1.,0.));
#920=DIRECTION('',(0.,-0.,1.));
#921=AXIS2_PLACEMENT_3D('',#918,#919,#920);
#922=CYLINDRICAL_SURFACE('',#921,0.3);
#923=ORIENTED_EDGE('',*,*,#463,.F.);
#924=CARTESIAN_POINT('',(274.8,-117.8,9.8));
#925=DIRECTION('',(0.707106781,0.707106781,0.));
#926=DIRECTION('',(0.707106781,-0.707106781,0.));
#927=AXIS2_PLACEMENT_3D('',#924,#925,#926);
#928=ELLIPSE('',#927,0.424264069,0.3);
#929=EDGE_CURVE('',#450,#615,#928,.T.);
#930=ORIENTED_EDGE('',*,*,#929,.T.);
#931=ORIENTED_EDGE('',*,*,#644,.F.);
#932=ORIENTED_EDGE('',*,*,#905,.F.);
#933=EDGE_LOOP('',(#923,#930,#931,#932));
#934=FACE_BOUND('',#933,.T.);
#935=ADVANCED_FACE('',(#934),#922,.T.);
#936=CARTESIAN_POINT('',(210.,-117.8,9.8));
#937=DIRECTION('',(1.,0.,0.));
#938=DIRECTION('',(0.,0.,-1.));
#939=AXIS2_PLACEMENT_3D('',#936,#937,#938);
#940=CYLINDRICAL_SURFACE('',#939,0.3);
#941=ORIENTED_EDGE('',*,*,#492,.F.);
#942=CARTESIAN_POINT('',(145.2,-117.8,9.8));
#943=DIRECTION('',(0.707106781,-0.707106781,0.));
#944=DIRECTION('',(-0.707106781,-0.707106781,0.));
#945=AXIS2_PLACEMENT_3D('',#942,#943,#944);
#946=ELLIPSE('',#945,0.424264069,0.3);
#947=EDGE_CURVE('',#481,#617,#946,.T.);
#948=ORIENTED_EDGE('',*,*,#947,.T.);
#949=ORIENTED_EDGE('',*,*,#622,.F.);
#950=ORIENTED_EDGE('',*,*,#929,.F.);
#951=EDGE_LOOP('',(#941,#948,#949,#950));
#952=FACE_BOUND('',#951,.T.);
#953=ADVANCED_FACE('',(#952),#940,.T.);
#954=CARTESIAN_POINT('',(145.2,-80.,9.8));
#955=DIRECTION('',(0.,-1.,0.));
#956=DIRECTION('',(0.,0.,-1.));
#957=AXIS2_PLACEMENT_3D('',#954,#955,#956);
#958=CYLINDRICAL_SURFACE('',#957,0.3);
#959=ORIENTED_EDGE('',*,*,#913,.F.);
#960=ORIENTED_EDGE('',*,*,#630,.F.);
#961=ORIENTED_EDGE('',*,*,#947,.F.);
#962=ORIENTED_EDGE('',*,*,#516,.F.);
#963=EDGE_LOOP('',(#959,#960,#961,#962));
#964=FACE_BOUND('',#963,.T.);
#965=ADVANCED_FACE('',(#964),#958,.T.);
#966=CARTESIAN_POINT('',(176.98363615,-39.2,4.349916937));
#967=DIRECTION('',(0.,0.,1.));
#968=DIRECTION('',(1.,0.,-0.));
#969=AXIS2_PLACEMENT_3D('',#966,#967,#968);
#970=CYLINDRICAL_SURFACE('',#969,0.6);
#971=ORIENTED_EDGE('',*,*,#214,.F.);
#972=CARTESIAN_POINT('',(177.000203292,-39.799771231,7.599843234));
#973=CARTESIAN_POINT('',(177.051659368,-39.798349889,7.599842522));
#974=CARTESIAN_POINT('',(177.101826123,-39.790445009,7.599841827));
#975=CARTESIAN_POINT('',(177.150743905,-39.776259489,7.59984115));
#976=CARTESIAN_POINT('',(177.199661687,-39.762073969,7.599840473));
#977=CARTESIAN_POINT('',(177.247220612,-39.741386582,7.599839815));
#978=CARTESIAN_POINT('',(177.290811014,-39.715406251,7.599839212));
#979=CARTESIAN_POINT('',(177.334401415,-39.68942592,7.599838608));
#980=CARTESIAN_POINT('',(177.375265735,-39.657400728,7.599838043));
#981=CARTESIAN_POINT('',(177.410982661,-39.621159067,7.599837548));
#982=CARTESIAN_POINT('',(177.446699588,-39.584917406,7.599837054));
#983=CARTESIAN_POINT('',(177.477513541,-39.544579267,7.599836628));
#984=CARTESIAN_POINT('',(177.503251393,-39.5,7.599836271));
#985=B_SPLINE_CURVE_WITH_KNOTS('',3,(#972,#973,#974,#975,#976,#977,#978,#979,#980,#981,#982,#983,#984),.UNSPECIFIED.,.F.,.F.,(4,3,3,3,4),(0.,0.000152235,0.00030447,0.000456706,0.000608941),.UNSPECIFIED.);
#986=EDGE_CURVE('',#201,#389,#985,.T.);
#987=ORIENTED_EDGE('',*,*,#986,.T.);
#988=ORIENTED_EDGE('',*,*,#394,.F.);
#989=ORIENTED_EDGE('',*,*,#180,.F.);
#990=EDGE_LOOP('',(#971,#987,#988,#989));
#991=FACE_BOUND('',#990,.T.);
#992=ADVANCED_FACE('',(#991),#970,.F.);
#993=CARTESIAN_POINT('',(166.019818455,-39.2,4.35));
#994=DIRECTION('',(0.,0.,-1.));
#995=DIRECTION('',(-1.,0.,0.));
#996=AXIS2_PLACEMENT_3D('',#993,#994,#995);
#997=CYLINDRICAL_SURFACE('',#996,0.6);
#998=ORIENTED_EDGE('',*,*,#438,.F.);
#999=CARTESIAN_POINT('',(165.500203212,-39.5,7.6));
#1000=CARTESIAN_POINT('',(165.525834328,-39.544394395,7.599999645));
#1001=CARTESIAN_POINT('',(165.55651269,-39.584603704,7.599999221));
#1002=CARTESIAN_POINT('',(165.59207902,-39.620759998,7.599998728));
#1003=CARTESIAN_POINT('',(165.62764535,-39.656916292,7.599998236));
#1004=CARTESIAN_POINT('',(165.668259122,-39.688835637,7.599997674));
#1005=CARTESIAN_POINT('',(165.711617555,-39.714793362,7.599997074));
#1006=CARTESIAN_POINT('',(165.754975988,-39.740751086,7.599996474));
#1007=CARTESIAN_POINT('',(165.802349779,-39.761489267,7.599995818));
#1008=CARTESIAN_POINT('',(165.850927124,-39.77573928,7.599995146));
#1009=CARTESIAN_POINT('',(165.899504469,-39.789989293,7.599994474));
#1010=CARTESIAN_POINT('',(165.94925497,-39.798012788,7.599993785));
#1011=CARTESIAN_POINT('',(166.000203212,-39.799679283,7.59999308));
#1012=B_SPLINE_CURVE_WITH_KNOTS('',3,(#999,#1000,#1001,#1002,#1003,#1004,#1005,#1006,#1007,#1008,#1009,#1010,#1011),.UNSPECIFIED.,.F.,.F.,(4,3,3,3,4),(0.,0.000151604,0.000303208,0.000454812,0.000606416),.UNSPECIFIED.);
#1013=EDGE_CURVE('',#420,#233,#1012,.T.);
#1014=ORIENTED_EDGE('',*,*,#1013,.T.);
#1015=ORIENTED_EDGE('',*,*,#238,.F.);
#1016=ORIENTED_EDGE('',*,*,#117,.F.);
#1017=EDGE_LOOP('',(#998,#1014,#1015,#1016));
#1018=FACE_BOUND('',#1017,.T.);
#1019=ADVANCED_FACE('',(#1018),#997,.F.);
#1020=CARTESIAN_POINT('',(176.98363615,-39.2,7.599841066));
#1021=DIRECTION('',(-0.00001384,-0.,-1.));
#1022=DIRECTION('',(-1.,0.,0.00001384));
#1023=AXIS2_PLACEMENT_3D('',#1020,#1021,#1022);
#1024=TOROIDAL_SURFACE('',#1023,0.4,0.2);
#1025=ORIENTED_EDGE('',*,*,#207,.F.);
#1026=ORIENTED_EDGE('',*,*,#278,.F.);
#1027=CARTESIAN_POINT('',(176.98363615,-39.6,7.599841066));
#1028=DIRECTION('',(1.,0.,-0.00001384));
#1029=DIRECTION('',(-0.00001384,0.,-1.));
#1030=AXIS2_PLACEMENT_3D('',#1027,#1028,#1029);
#1031=CIRCLE('',#1030,0.2);
#1032=EDGE_CURVE('',#655,#265,#1031,.T.);
#1033=ORIENTED_EDGE('',*,*,#1032,.F.);
#1034=ORIENTED_EDGE('',*,*,#677,.F.);
#1035=ORIENTED_EDGE('',*,*,#409,.F.);
#1036=ORIENTED_EDGE('',*,*,#986,.F.);
#1037=EDGE_LOOP('',(#1025,#1026,#1033,#1034,#1035,#1036));
#1038=FACE_BOUND('',#1037,.T.);
#1039=ADVANCED_FACE('',(#1038),#1024,.F.);
#1040=CARTESIAN_POINT('',(166.019818455,-39.2,7.599992808));
#1041=DIRECTION('',(-0.00001384,-0.,-1.));
#1042=DIRECTION('',(-1.,0.,0.00001384));
#1043=AXIS2_PLACEMENT_3D('',#1040,#1041,#1042);
#1044=TOROIDAL_SURFACE('',#1043,0.4,0.2);
#1045=ORIENTED_EDGE('',*,*,#432,.F.);
#1046=ORIENTED_EDGE('',*,*,#669,.F.);
#1047=CARTESIAN_POINT('',(166.019818455,-39.6,7.599992808));
#1048=DIRECTION('',(-1.,0.,0.00001384));
#1049=DIRECTION('',(0.00001384,0.,1.));
#1050=AXIS2_PLACEMENT_3D('',#1047,#1048,#1049);
#1051=CIRCLE('',#1050,0.2);
#1052=EDGE_CURVE('',#263,#657,#1051,.T.);
#1053=ORIENTED_EDGE('',*,*,#1052,.F.);
#1054=ORIENTED_EDGE('',*,*,#293,.F.);
#1055=ORIENTED_EDGE('',*,*,#1013,.F.);
#1056=EDGE_LOOP('',(#1045,#1046,#1053,#1054,#1055));
#1057=FACE_BOUND('',#1056,.T.);
#1058=ADVANCED_FACE('',(#1057),#1044,.F.);
#1059=CARTESIAN_POINT('',(171.501724534,-39.6,7.599916937));
#1060=DIRECTION('',(1.,0.,-0.00001384));
#1061=DIRECTION('',(-0.00001384,0.,-1.));
#1062=AXIS2_PLACEMENT_3D('',#1059,#1060,#1061);
#1063=CYLINDRICAL_SURFACE('',#1062,0.2);
#1064=ORIENTED_EDGE('',*,*,#1032,.T.);
#1065=ORIENTED_EDGE('',*,*,#271,.F.);
#1066=ORIENTED_EDGE('',*,*,#1052,.T.);
#1067=ORIENTED_EDGE('',*,*,#662,.F.);
#1068=EDGE_LOOP('',(#1064,#1065,#1066,#1067));
#1069=FACE_BOUND('',#1068,.T.);
#1070=ADVANCED_FACE('',(#1069),#1063,.F.);
#1071=CLOSED_SHELL('',(#184,#225,#256,#297,#328,#359,#443,#474,#498,#522,#543,#574,#648,#681,#699,#717,#735,#753,#776,#794,#812,#829,#846,#864,#882,#893,
#917,#935,#953,#965,#992,#1019,#1039,#1058,#1070));
#1072=MANIFOLD_SOLID_BREP('Body 02',#1071);
#1073=COLOUR_RGB('',0.627451003,0.627451003,0.643137276);
#1074=FILL_AREA_STYLE_COLOUR('',#1073);
#1075=FILL_AREA_STYLE('',(#1074));
#1076=SURFACE_STYLE_FILL_AREA(#1075);
#1077=SURFACE_SIDE_STYLE('',(#1076));
#1078=SURFACE_STYLE_USAGE(.BOTH.,#1077);
#1079=PRESENTATION_STYLE_ASSIGNMENT((#1078));
#26=STYLED_ITEM('',(#1079),#1072);
#1081=CARTESIAN_POINT('',(0.,0.,1.6));
#1082=DIRECTION('',(0.,0.,1.));
#1083=DIRECTION('',(1.,0.,0.));
#1084=AXIS2_PLACEMENT_3D('',#1081,#1082,#1083);
#1085=PLANE('',#1084);
#1086=CARTESIAN_POINT('',(277.5,-119.8,1.6));
#1087=VERTEX_POINT('',#1086);
#1088=CARTESIAN_POINT('',(277.5,-40.2,1.6));
#1089=VERTEX_POINT('',#1088);
#1090=CARTESIAN_POINT('',(277.5,-119.8,1.6));
#1091=DIRECTION('',(0.,1.,0.));
#1092=VECTOR('',#1091,79.6);
#1093=LINE('',#1090,#1092);
#1094=EDGE_CURVE('',#1087,#1089,#1093,.T.);
#1095=ORIENTED_EDGE('',*,*,#1094,.T.);
#1096=CARTESIAN_POINT('',(276.8,-39.5,1.6));
#1097=VERTEX_POINT('',#1096);
#1098=CARTESIAN_POINT('',(276.8,-40.2,1.6));
#1099=DIRECTION('',(0.,0.,1.));
#1100=DIRECTION('',(1.,0.,-0.));
#1101=AXIS2_PLACEMENT_3D('',#1098,#1099,#1100);
#1102=CIRCLE('',#1101,0.7);
#1103=EDGE_CURVE('',#1089,#1097,#1102,.T.);
#1104=ORIENTED_EDGE('',*,*,#1103,.T.);
#1105=CARTESIAN_POINT('',(177.503251393,-39.5,1.6));
#1106=VERTEX_POINT('',#1105);
#1107=CARTESIAN_POINT('',(276.8,-39.5,1.6));
#1108=DIRECTION('',(-1.,-0.,0.));
#1109=VECTOR('',#1108,99.296748607);
#1110=LINE('',#1107,#1109);
#1111=EDGE_CURVE('',#1097,#1106,#1110,.T.);
#1112=ORIENTED_EDGE('',*,*,#1111,.T.);
#1113=CARTESIAN_POINT('',(177.002926254,-39.799999824,1.6));
#1114=VERTEX_POINT('',#1113);
#1115=CARTESIAN_POINT('',(177.001255377,-39.23,1.6));
#1116=DIRECTION('',(-0.,-0.,-1.));
#1117=DIRECTION('',(1.,0.,-0.));
#1118=AXIS2_PLACEMENT_3D('',#1115,#1116,#1117);
#1119=CIRCLE('',#1118,0.57);
#1120=EDGE_CURVE('',#1106,#1114,#1119,.T.);
#1121=ORIENTED_EDGE('',*,*,#1120,.T.);
#1122=CARTESIAN_POINT('',(177.,-42.5,1.6));
#1123=VERTEX_POINT('',#1122);
#1124=CARTESIAN_POINT('',(177.002926254,-39.799999824,1.6));
#1125=DIRECTION('',(-0.001083797,-0.999999413,0.));
#1126=VECTOR('',#1125,2.700001762);
#1127=LINE('',#1124,#1126);
#1128=EDGE_CURVE('',#1114,#1123,#1127,.T.);
#1129=ORIENTED_EDGE('',*,*,#1128,.T.);
#1130=CARTESIAN_POINT('',(166.000203212,-42.5,1.6));
#1131=VERTEX_POINT('',#1130);
#1132=CARTESIAN_POINT('',(177.,-42.5,1.6));
#1133=DIRECTION('',(-1.,0.,0.));
#1134=VECTOR('',#1133,10.999796788);
#1135=LINE('',#1132,#1134);
#1136=EDGE_CURVE('',#1123,#1131,#1135,.T.);
#1137=ORIENTED_EDGE('',*,*,#1136,.T.);
#1138=CARTESIAN_POINT('',(166.000203212,-39.8,1.6));
#1139=VERTEX_POINT('',#1138);
#1140=CARTESIAN_POINT('',(166.000203212,-42.5,1.6));
#1141=DIRECTION('',(0.,1.,0.));
#1142=VECTOR('',#1141,2.7);
#1143=LINE('',#1140,#1142);
#1144=EDGE_CURVE('',#1131,#1139,#1143,.T.);
#1145=ORIENTED_EDGE('',*,*,#1144,.T.);
#1146=CARTESIAN_POINT('',(165.887501547,-39.8,1.6));
#1147=VERTEX_POINT('',#1146);
#1148=CARTESIAN_POINT('',(166.000203212,-39.8,1.6));
#1149=DIRECTION('',(-1.,-0.,0.));
#1150=VECTOR('',#1149,0.112701665);
#1151=LINE('',#1148,#1150);
#1152=EDGE_CURVE('',#1139,#1147,#1151,.T.);
#1153=ORIENTED_EDGE('',*,*,#1152,.T.);
#1154=CARTESIAN_POINT('',(165.500203212,-39.5,1.6));
#1155=VERTEX_POINT('',#1154);
#1156=CARTESIAN_POINT('',(165.887501547,-39.4,1.6));
#1157=DIRECTION('',(-0.,-0.,-1.));
#1158=DIRECTION('',(1.,0.,-0.));
#1159=AXIS2_PLACEMENT_3D('',#1156,#1157,#1158);
#1160=CIRCLE('',#1159,0.4);
#1161=EDGE_CURVE('',#1147,#1155,#1160,.T.);
#1162=ORIENTED_EDGE('',*,*,#1161,.T.);
#1163=CARTESIAN_POINT('',(143.2,-39.5,1.6));
#1164=VERTEX_POINT('',#1163);
#1165=CARTESIAN_POINT('',(165.500203212,-39.5,1.6));
#1166=DIRECTION('',(-1.,-0.,0.));
#1167=VECTOR('',#1166,22.300203212);
#1168=LINE('',#1165,#1167);
#1169=EDGE_CURVE('',#1155,#1164,#1168,.T.);
#1170=ORIENTED_EDGE('',*,*,#1169,.T.);
#1171=CARTESIAN_POINT('',(142.5,-40.2,1.6));
#1172=VERTEX_POINT('',#1171);
#1173=CARTESIAN_POINT('',(143.2,-40.2,1.6));
#1174=DIRECTION('',(0.,0.,1.));
#1175=DIRECTION('',(1.,0.,-0.));
#1176=AXIS2_PLACEMENT_3D('',#1173,#1174,#1175);
#1177=CIRCLE('',#1176,0.7);
#1178=EDGE_CURVE('',#1164,#1172,#1177,.T.);
#1179=ORIENTED_EDGE('',*,*,#1178,.T.);
#1180=CARTESIAN_POINT('',(142.5,-119.8,1.6));
#1181=VERTEX_POINT('',#1180);
#1182=CARTESIAN_POINT('',(142.5,-40.2,1.6));
#1183=DIRECTION('',(0.,-1.,0.));
#1184=VECTOR('',#1183,79.6);
#1185=LINE('',#1182,#1184);
#1186=EDGE_CURVE('',#1172,#1181,#1185,.T.);
#1187=ORIENTED_EDGE('',*,*,#1186,.T.);
#1188=CARTESIAN_POINT('',(143.2,-120.5,1.6));
#1189=VERTEX_POINT('',#1188);
#1190=CARTESIAN_POINT('',(143.2,-119.8,1.6));
#1191=DIRECTION('',(0.,0.,1.));
#1192=DIRECTION('',(1.,0.,-0.));
#1193=AXIS2_PLACEMENT_3D('',#1190,#1191,#1192);
#1194=CIRCLE('',#1193,0.7);
#1195=EDGE_CURVE('',#1181,#1189,#1194,.T.);
#1196=ORIENTED_EDGE('',*,*,#1195,.T.);
#1197=CARTESIAN_POINT('',(276.8,-120.5,1.6));
#1198=VERTEX_POINT('',#1197);
#1199=CARTESIAN_POINT('',(143.2,-120.5,1.6));
#1200=DIRECTION('',(1.,0.,-0.));
#1201=VECTOR('',#1200,133.6);
#1202=LINE('',#1199,#1201);
#1203=EDGE_CURVE('',#1189,#1198,#1202,.T.);
#1204=ORIENTED_EDGE('',*,*,#1203,.T.);
#1205=CARTESIAN_POINT('',(276.8,-119.8,1.6));
#1206=DIRECTION('',(0.,0.,1.));
#1207=DIRECTION('',(1.,0.,-0.));
#1208=AXIS2_PLACEMENT_3D('',#1205,#1206,#1207);
#1209=CIRCLE('',#1208,0.7);
#1210=EDGE_CURVE('',#1198,#1087,#1209,.T.);
#1211=ORIENTED_EDGE('',*,*,#1210,.T.);
#1212=EDGE_LOOP('',(#1095,#1104,#1112,#1121,#1129,#1137,#1145,#1153,#1162,#1170,#1179,#1187,#1196,#1204,#1211));
#1213=FACE_BOUND('',#1212,.T.);
#1214=ADVANCED_FACE('',(#1213),#1085,.T.);
#1215=CARTESIAN_POINT('',(166.000203212,-41.,0.9));
#1216=DIRECTION('',(1.,0.,0.));
#1217=DIRECTION('',(0.,0.,-1.));
#1218=AXIS2_PLACEMENT_3D('',#1215,#1216,#1217);
#1219=PLANE('',#1218);
#1220=CARTESIAN_POINT('',(166.000203212,-42.5,0.9));
#1221=VERTEX_POINT('',#1220);
#1222=CARTESIAN_POINT('',(166.000203212,-39.8,0.9));
#1223=VERTEX_POINT('',#1222);
#1224=CARTESIAN_POINT('',(166.000203212,-42.5,0.9));
#1225=DIRECTION('',(0.,1.,0.));
#1226=VECTOR('',#1225,2.7);
#1227=LINE('',#1224,#1226);
#1228=EDGE_CURVE('',#1221,#1223,#1227,.T.);
#1229=ORIENTED_EDGE('',*,*,#1228,.T.);
#1230=CARTESIAN_POINT('',(166.000203212,-39.8,0.9));
#1231=DIRECTION('',(0.,0.,1.));
#1232=VECTOR('',#1231,0.7);
#1233=LINE('',#1230,#1232);
#1234=EDGE_CURVE('',#1223,#1139,#1233,.T.);
#1235=ORIENTED_EDGE('',*,*,#1234,.T.);
#1236=ORIENTED_EDGE('',*,*,#1144,.F.);
#1237=CARTESIAN_POINT('',(166.000203212,-42.5,0.9));
#1238=DIRECTION('',(0.,0.,1.));
#1239=VECTOR('',#1238,0.7);
#1240=LINE('',#1237,#1239);
#1241=EDGE_CURVE('',#1221,#1131,#1240,.T.);
#1242=ORIENTED_EDGE('',*,*,#1241,.F.);
#1243=EDGE_LOOP('',(#1229,#1235,#1236,#1242));
#1244=FACE_BOUND('',#1243,.T.);
#1245=ADVANCED_FACE('',(#1244),#1219,.T.);
#1246=CARTESIAN_POINT('',(210.,-120.5,1.6));
#1247=DIRECTION('',(0.,1.,0.));
#1248=DIRECTION('',(0.,0.,1.));
#1249=AXIS2_PLACEMENT_3D('',#1246,#1247,#1248);
#1250=PLANE('',#1249);
#1251=CARTESIAN_POINT('',(143.2,-120.5,0.));
#1252=VERTEX_POINT('',#1251);
#1253=CARTESIAN_POINT('',(276.8,-120.5,0.));
#1254=VERTEX_POINT('',#1253);
#1255=CARTESIAN_POINT('',(143.2,-120.5,0.));
#1256=DIRECTION('',(1.,0.,-0.));
#1257=VECTOR('',#1256,133.6);
#1258=LINE('',#1255,#1257);
#1259=EDGE_CURVE('',#1252,#1254,#1258,.T.);
#1260=ORIENTED_EDGE('',*,*,#1259,.T.);
#1261=CARTESIAN_POINT('',(276.8,-120.5,0.));
#1262=DIRECTION('',(-0.,-0.,1.));
#1263=VECTOR('',#1262,1.6);
#1264=LINE('',#1261,#1263);
#1265=EDGE_CURVE('',#1254,#1198,#1264,.T.);
#1266=ORIENTED_EDGE('',*,*,#1265,.T.);
#1267=ORIENTED_EDGE('',*,*,#1203,.F.);
#1268=CARTESIAN_POINT('',(143.2,-120.5,1.6));
#1269=DIRECTION('',(0.,0.,-1.));
#1270=VECTOR('',#1269,1.6);
#1271=LINE('',#1268,#1270);
#1272=EDGE_CURVE('',#1189,#1252,#1271,.T.);
#1273=ORIENTED_EDGE('',*,*,#1272,.T.);
#1274=EDGE_LOOP('',(#1260,#1266,#1267,#1273));
#1275=FACE_BOUND('',#1274,.T.);
#1276=ADVANCED_FACE('',(#1275),#1250,.F.);
#1277=CARTESIAN_POINT('',(277.5,-80.,1.6));
#1278=DIRECTION('',(-1.,0.,0.));
#1279=DIRECTION('',(0.,0.,1.));
#1280=AXIS2_PLACEMENT_3D('',#1277,#1278,#1279);
#1281=PLANE('',#1280);
#1282=CARTESIAN_POINT('',(277.5,-119.8,0.));
#1283=VERTEX_POINT('',#1282);
#1284=CARTESIAN_POINT('',(277.5,-40.2,0.));
#1285=VERTEX_POINT('',#1284);
#1286=CARTESIAN_POINT('',(277.5,-119.8,0.));
#1287=DIRECTION('',(0.,1.,0.));
#1288=VECTOR('',#1287,79.6);
#1289=LINE('',#1286,#1288);
#1290=EDGE_CURVE('',#1283,#1285,#1289,.T.);
#1291=ORIENTED_EDGE('',*,*,#1290,.T.);
#1292=CARTESIAN_POINT('',(277.5,-40.2,0.));
#1293=DIRECTION('',(-0.,-0.,1.));
#1294=VECTOR('',#1293,1.6);
#1295=LINE('',#1292,#1294);
#1296=EDGE_CURVE('',#1285,#1089,#1295,.T.);
#1297=ORIENTED_EDGE('',*,*,#1296,.T.);
#1298=ORIENTED_EDGE('',*,*,#1094,.F.);
#1299=CARTESIAN_POINT('',(277.5,-119.8,1.6));
#1300=DIRECTION('',(0.,0.,-1.));
#1301=VECTOR('',#1300,1.6);
#1302=LINE('',#1299,#1301);
#1303=EDGE_CURVE('',#1087,#1283,#1302,.T.);
#1304=ORIENTED_EDGE('',*,*,#1303,.T.);
#1305=EDGE_LOOP('',(#1291,#1297,#1298,#1304));
#1306=FACE_BOUND('',#1305,.T.);
#1307=ADVANCED_FACE('',(#1306),#1281,.F.);
#1308=CARTESIAN_POINT('',(210.,-39.5,1.6));
#1309=DIRECTION('',(0.,-1.,0.));
#1310=DIRECTION('',(1.,0.,0.));
#1311=AXIS2_PLACEMENT_3D('',#1308,#1309,#1310);
#1312=PLANE('',#1311);
#1313=CARTESIAN_POINT('',(177.003251393,-39.5,0.6));
#1314=VERTEX_POINT('',#1313);
#1315=CARTESIAN_POINT('',(177.503251393,-39.5,0.6));
#1316=VERTEX_POINT('',#1315);
#1317=CARTESIAN_POINT('',(177.003251393,-39.5,0.6));
#1318=DIRECTION('',(1.,0.,0.));
#1319=VECTOR('',#1318,0.5);
#1320=LINE('',#1317,#1319);
#1321=EDGE_CURVE('',#1314,#1316,#1320,.T.);
#1322=ORIENTED_EDGE('',*,*,#1321,.T.);
#1323=CARTESIAN_POINT('',(177.503251393,-39.5,0.6));
#1324=DIRECTION('',(0.,0.,1.));
#1325=VECTOR('',#1324,1.);
#1326=LINE('',#1323,#1325);
#1327=EDGE_CURVE('',#1316,#1106,#1326,.T.);
#1328=ORIENTED_EDGE('',*,*,#1327,.T.);
#1329=ORIENTED_EDGE('',*,*,#1111,.F.);
#1330=CARTESIAN_POINT('',(276.8,-39.5,0.));
#1331=VERTEX_POINT('',#1330);
#1332=CARTESIAN_POINT('',(276.8,-39.5,1.6));
#1333=DIRECTION('',(0.,0.,-1.));
#1334=VECTOR('',#1333,1.6);
#1335=LINE('',#1332,#1334);
#1336=EDGE_CURVE('',#1097,#1331,#1335,.T.);
#1337=ORIENTED_EDGE('',*,*,#1336,.T.);
#1338=CARTESIAN_POINT('',(143.2,-39.5,0.));
#1339=VERTEX_POINT('',#1338);
#1340=CARTESIAN_POINT('',(276.8,-39.5,0.));
#1341=DIRECTION('',(-1.,-0.,0.));
#1342=VECTOR('',#1341,133.6);
#1343=LINE('',#1340,#1342);
#1344=EDGE_CURVE('',#1331,#1339,#1343,.T.);
#1345=ORIENTED_EDGE('',*,*,#1344,.T.);
#1346=CARTESIAN_POINT('',(143.2,-39.5,0.));
#1347=DIRECTION('',(-0.,-0.,1.));
#1348=VECTOR('',#1347,1.6);
#1349=LINE('',#1346,#1348);
#1350=EDGE_CURVE('',#1339,#1164,#1349,.T.);
#1351=ORIENTED_EDGE('',*,*,#1350,.T.);
#1352=ORIENTED_EDGE('',*,*,#1169,.F.);
#1353=CARTESIAN_POINT('',(165.500203212,-39.5,0.6));
#1354=VERTEX_POINT('',#1353);
#1355=CARTESIAN_POINT('',(165.500203212,-39.5,1.6));
#1356=DIRECTION('',(0.,0.,-1.));
#1357=VECTOR('',#1356,1.);
#1358=LINE('',#1355,#1357);
#1359=EDGE_CURVE('',#1155,#1354,#1358,.T.);
#1360=ORIENTED_EDGE('',*,*,#1359,.T.);
#1361=CARTESIAN_POINT('',(165.500203212,-39.5,0.6));
#1362=DIRECTION('',(1.,0.,0.));
#1363=VECTOR('',#1362,11.50304818);
#1364=LINE('',#1361,#1363);
#1365=EDGE_CURVE('',#1354,#1314,#1364,.T.);
#1366=ORIENTED_EDGE('',*,*,#1365,.T.);
#1367=EDGE_LOOP('',(#1322,#1328,#1329,#1337,#1345,#1351,#1352,#1360,#1366));
#1368=FACE_BOUND('',#1367,.T.);
#1369=ADVANCED_FACE('',(#1368),#1312,.F.);
#1370=CARTESIAN_POINT('',(142.5,-80.,1.6));
#1371=DIRECTION('',(1.,0.,0.));
#1372=DIRECTION('',(0.,0.,-1.));
#1373=AXIS2_PLACEMENT_3D('',#1370,#1371,#1372);
#1374=PLANE('',#1373);
#1375=CARTESIAN_POINT('',(142.5,-40.2,0.));
#1376=VERTEX_POINT('',#1375);
#1377=CARTESIAN_POINT('',(142.5,-119.8,0.));
#1378=VERTEX_POINT('',#1377);
#1379=CARTESIAN_POINT('',(142.5,-40.2,0.));
#1380=DIRECTION('',(0.,-1.,0.));
#1381=VECTOR('',#1380,79.6);
#1382=LINE('',#1379,#1381);
#1383=EDGE_CURVE('',#1376,#1378,#1382,.T.);
#1384=ORIENTED_EDGE('',*,*,#1383,.T.);
#1385=CARTESIAN_POINT('',(142.5,-119.8,0.));
#1386=DIRECTION('',(-0.,-0.,1.));
#1387=VECTOR('',#1386,1.6);
#1388=LINE('',#1385,#1387);
#1389=EDGE_CURVE('',#1378,#1181,#1388,.T.);
#1390=ORIENTED_EDGE('',*,*,#1389,.T.);
#1391=ORIENTED_EDGE('',*,*,#1186,.F.);
#1392=CARTESIAN_POINT('',(142.5,-40.2,1.6));
#1393=DIRECTION('',(0.,0.,-1.));
#1394=VECTOR('',#1393,1.6);
#1395=LINE('',#1392,#1394);
#1396=EDGE_CURVE('',#1172,#1376,#1395,.T.);
#1397=ORIENTED_EDGE('',*,*,#1396,.T.);
#1398=EDGE_LOOP('',(#1384,#1390,#1391,#1397));
#1399=FACE_BOUND('',#1398,.T.);
#1400=ADVANCED_FACE('',(#1399),#1374,.F.);
#1401=CARTESIAN_POINT('',(0.,0.,0.));
#1402=DIRECTION('',(0.,0.,1.));
#1403=DIRECTION('',(1.,0.,0.));
#1404=AXIS2_PLACEMENT_3D('',#1401,#1402,#1403);
#1405=PLANE('',#1404);
#1406=ORIENTED_EDGE('',*,*,#1344,.F.);
#1407=CARTESIAN_POINT('',(276.8,-40.2,0.));
#1408=DIRECTION('',(-0.,-0.,-1.));
#1409=DIRECTION('',(1.,0.,-0.));
#1410=AXIS2_PLACEMENT_3D('',#1407,#1408,#1409);
#1411=CIRCLE('',#1410,0.7);
#1412=EDGE_CURVE('',#1331,#1285,#1411,.T.);
#1413=ORIENTED_EDGE('',*,*,#1412,.T.);
#1414=ORIENTED_EDGE('',*,*,#1290,.F.);
#1415=CARTESIAN_POINT('',(276.8,-119.8,0.));
#1416=DIRECTION('',(-0.,-0.,-1.));
#1417=DIRECTION('',(1.,0.,-0.));
#1418=AXIS2_PLACEMENT_3D('',#1415,#1416,#1417);
#1419=CIRCLE('',#1418,0.7);
#1420=EDGE_CURVE('',#1283,#1254,#1419,.T.);
#1421=ORIENTED_EDGE('',*,*,#1420,.T.);
#1422=ORIENTED_EDGE('',*,*,#1259,.F.);
#1423=CARTESIAN_POINT('',(143.2,-119.8,0.));
#1424=DIRECTION('',(-0.,-0.,-1.));
#1425=DIRECTION('',(1.,0.,-0.));
#1426=AXIS2_PLACEMENT_3D('',#1423,#1424,#1425);
#1427=CIRCLE('',#1426,0.7);
#1428=EDGE_CURVE('',#1252,#1378,#1427,.T.);
#1429=ORIENTED_EDGE('',*,*,#1428,.T.);
#1430=ORIENTED_EDGE('',*,*,#1383,.F.);
#1431=CARTESIAN_POINT('',(143.2,-40.2,0.));
#1432=DIRECTION('',(-0.,-0.,-1.));
#1433=DIRECTION('',(1.,0.,-0.));
#1434=AXIS2_PLACEMENT_3D('',#1431,#1432,#1433);
#1435=CIRCLE('',#1434,0.7);
#1436=EDGE_CURVE('',#1376,#1339,#1435,.T.);
#1437=ORIENTED_EDGE('',*,*,#1436,.T.);
#1438=EDGE_LOOP('',(#1406,#1413,#1414,#1421,#1422,#1429,#1430,#1437));
#1439=FACE_BOUND('',#1438,.T.);
#1440=ADVANCED_FACE('',(#1439),#1405,.F.);
#1441=CARTESIAN_POINT('',(171.500101606,-42.5,0.9));
#1442=DIRECTION('',(0.,1.,0.));
#1443=DIRECTION('',(-1.,0.,0.));
#1444=AXIS2_PLACEMENT_3D('',#1441,#1442,#1443);
#1445=PLANE('',#1444);
#1446=ORIENTED_EDGE('',*,*,#1136,.F.);
#1447=CARTESIAN_POINT('',(177.,-42.5,0.9));
#1448=VERTEX_POINT('',#1447);
#1449=CARTESIAN_POINT('',(177.,-42.5,0.9));
#1450=DIRECTION('',(0.,0.,1.));
#1451=VECTOR('',#1450,0.7);
#1452=LINE('',#1449,#1451);
#1453=EDGE_CURVE('',#1448,#1123,#1452,.T.);
#1454=ORIENTED_EDGE('',*,*,#1453,.F.);
#1455=CARTESIAN_POINT('',(177.,-42.5,0.9));
#1456=DIRECTION('',(-1.,0.,0.));
#1457=VECTOR('',#1456,10.999796788);
#1458=LINE('',#1455,#1457);
#1459=EDGE_CURVE('',#1448,#1221,#1458,.T.);
#1460=ORIENTED_EDGE('',*,*,#1459,.T.);
#1461=ORIENTED_EDGE('',*,*,#1241,.T.);
#1462=EDGE_LOOP('',(#1446,#1454,#1460,#1461));
#1463=FACE_BOUND('',#1462,.T.);
#1464=ADVANCED_FACE('',(#1463),#1445,.T.);
#1465=CARTESIAN_POINT('',(177.001625696,-41.,0.9));
#1466=DIRECTION('',(-0.999999413,0.001083797,0.));
#1467=DIRECTION('',(-0.001083797,-0.999999413,0.));
#1468=AXIS2_PLACEMENT_3D('',#1465,#1466,#1467);
#1469=PLANE('',#1468);
#1470=ORIENTED_EDGE('',*,*,#1128,.F.);
#1471=CARTESIAN_POINT('',(177.002926254,-39.799999824,0.9));
#1472=VERTEX_POINT('',#1471);
#1473=CARTESIAN_POINT('',(177.002926254,-39.799999824,1.6));
#1474=DIRECTION('',(0.,0.,-1.));
#1475=VECTOR('',#1474,0.7);
#1476=LINE('',#1473,#1475);
#1477=EDGE_CURVE('',#1114,#1472,#1476,.T.);
#1478=ORIENTED_EDGE('',*,*,#1477,.T.);
#1479=CARTESIAN_POINT('',(177.002926254,-39.799999824,0.9));
#1480=DIRECTION('',(-0.001083797,-0.999999413,0.));
#1481=VECTOR('',#1480,2.700001762);
#1482=LINE('',#1479,#1481);
#1483=EDGE_CURVE('',#1472,#1448,#1482,.T.);
#1484=ORIENTED_EDGE('',*,*,#1483,.T.);
#1485=ORIENTED_EDGE('',*,*,#1453,.T.);
#1486=EDGE_LOOP('',(#1470,#1478,#1484,#1485));
#1487=FACE_BOUND('',#1486,.T.);
#1488=ADVANCED_FACE('',(#1487),#1469,.T.);
#1489=CARTESIAN_POINT('',(0.,0.,0.9));
#1490=DIRECTION('',(0.,0.,1.));
#1491=DIRECTION('',(1.,0.,0.));
#1492=AXIS2_PLACEMENT_3D('',#1489,#1490,#1491);
#1493=PLANE('',#1492);
#1494=ORIENTED_EDGE('',*,*,#1483,.F.);
#1495=CARTESIAN_POINT('',(177.002926254,-39.8,0.9));
#1496=DIRECTION('',(-1.,-0.,-0.));
#1497=VECTOR('',#1496,11.002723041);
#1498=LINE('',#1495,#1497);
#1499=EDGE_CURVE('',#1472,#1223,#1498,.T.);
#1500=ORIENTED_EDGE('',*,*,#1499,.T.);
#1501=ORIENTED_EDGE('',*,*,#1228,.F.);
#1502=ORIENTED_EDGE('',*,*,#1459,.F.);
#1503=EDGE_LOOP('',(#1494,#1500,#1501,#1502));
#1504=FACE_BOUND('',#1503,.T.);
#1505=ADVANCED_FACE('',(#1504),#1493,.T.);
#1506=CARTESIAN_POINT('',(0.,-39.8,0.));
#1507=DIRECTION('',(-0.,1.,0.));
#1508=DIRECTION('',(0.,0.,1.));
#1509=AXIS2_PLACEMENT_3D('',#1506,#1507,#1508);
#1510=PLANE('',#1509);
#1511=CARTESIAN_POINT('',(165.887501547,-39.8,0.9));
#1512=VERTEX_POINT('',#1511);
#1513=CARTESIAN_POINT('',(165.887501547,-39.8,0.9));
#1514=DIRECTION('',(1.,0.,-0.));
#1515=VECTOR('',#1514,0.112701665);
#1516=LINE('',#1513,#1515);
#1517=EDGE_CURVE('',#1512,#1223,#1516,.T.);
#1518=ORIENTED_EDGE('',*,*,#1517,.F.);
#1519=CARTESIAN_POINT('',(165.887501547,-39.8,0.9));
#1520=DIRECTION('',(0.,0.,1.));
#1521=VECTOR('',#1520,0.7);
#1522=LINE('',#1519,#1521);
#1523=EDGE_CURVE('',#1512,#1147,#1522,.T.);
#1524=ORIENTED_EDGE('',*,*,#1523,.T.);
#1525=ORIENTED_EDGE('',*,*,#1152,.F.);
#1526=ORIENTED_EDGE('',*,*,#1234,.F.);
#1527=EDGE_LOOP('',(#1518,#1524,#1525,#1526));
#1528=FACE_BOUND('',#1527,.T.);
#1529=ADVANCED_FACE('',(#1528),#1510,.T.);
#1530=CARTESIAN_POINT('',(143.2,-40.2,1.6));
#1531=DIRECTION('',(0.,0.,-1.));
#1532=DIRECTION('',(-1.,0.,0.));
#1533=AXIS2_PLACEMENT_3D('',#1530,#1531,#1532);
#1534=CYLINDRICAL_SURFACE('',#1533,0.7);
#1535=ORIENTED_EDGE('',*,*,#1178,.F.);
#1536=ORIENTED_EDGE('',*,*,#1350,.F.);
#1537=ORIENTED_EDGE('',*,*,#1436,.F.);
#1538=ORIENTED_EDGE('',*,*,#1396,.F.);
#1539=EDGE_LOOP('',(#1535,#1536,#1537,#1538));
#1540=FACE_BOUND('',#1539,.T.);
#1541=ADVANCED_FACE('',(#1540),#1534,.T.);
#1542=CARTESIAN_POINT('',(143.2,-119.8,1.6));
#1543=DIRECTION('',(0.,0.,-1.));
#1544=DIRECTION('',(-1.,0.,0.));
#1545=AXIS2_PLACEMENT_3D('',#1542,#1543,#1544);
#1546=CYLINDRICAL_SURFACE('',#1545,0.7);
#1547=ORIENTED_EDGE('',*,*,#1195,.F.);
#1548=ORIENTED_EDGE('',*,*,#1389,.F.);
#1549=ORIENTED_EDGE('',*,*,#1428,.F.);
#1550=ORIENTED_EDGE('',*,*,#1272,.F.);
#1551=EDGE_LOOP('',(#1547,#1548,#1549,#1550));
#1552=FACE_BOUND('',#1551,.T.);
#1553=ADVANCED_FACE('',(#1552),#1546,.T.);
#1554=CARTESIAN_POINT('',(276.8,-119.8,1.6));
#1555=DIRECTION('',(0.,0.,-1.));
#1556=DIRECTION('',(-1.,0.,0.));
#1557=AXIS2_PLACEMENT_3D('',#1554,#1555,#1556);
#1558=CYLINDRICAL_SURFACE('',#1557,0.7);
#1559=ORIENTED_EDGE('',*,*,#1210,.F.);
#1560=ORIENTED_EDGE('',*,*,#1265,.F.);
#1561=ORIENTED_EDGE('',*,*,#1420,.F.);
#1562=ORIENTED_EDGE('',*,*,#1303,.F.);
#1563=EDGE_LOOP('',(#1559,#1560,#1561,#1562));
#1564=FACE_BOUND('',#1563,.T.);
#1565=ADVANCED_FACE('',(#1564),#1558,.T.);
#1566=CARTESIAN_POINT('',(276.8,-40.2,1.6));
#1567=DIRECTION('',(0.,0.,-1.));
#1568=DIRECTION('',(-1.,0.,0.));
#1569=AXIS2_PLACEMENT_3D('',#1566,#1567,#1568);
#1570=CYLINDRICAL_SURFACE('',#1569,0.7);
#1571=ORIENTED_EDGE('',*,*,#1103,.F.);
#1572=ORIENTED_EDGE('',*,*,#1296,.F.);
#1573=ORIENTED_EDGE('',*,*,#1412,.F.);
#1574=ORIENTED_EDGE('',*,*,#1336,.F.);
#1575=EDGE_LOOP('',(#1571,#1572,#1573,#1574));
#1576=FACE_BOUND('',#1575,.T.);
#1577=ADVANCED_FACE('',(#1576),#1570,.T.);
#1578=CARTESIAN_POINT('',(177.001255377,-39.23,4.349916937));
#1579=DIRECTION('',(0.,0.,1.));
#1580=DIRECTION('',(1.,0.,-0.));
#1581=AXIS2_PLACEMENT_3D('',#1578,#1579,#1580);
#1582=CYLINDRICAL_SURFACE('',#1581,0.57);
#1583=ORIENTED_EDGE('',*,*,#1477,.F.);
#1584=ORIENTED_EDGE('',*,*,#1120,.F.);
#1585=ORIENTED_EDGE('',*,*,#1327,.F.);
#1586=CARTESIAN_POINT('',(177.003251393,-39.8,0.9));
#1587=VERTEX_POINT('',#1586);
#1588=CARTESIAN_POINT('',(177.503251393,-39.5,0.6));
#1589=CARTESIAN_POINT('',(177.503251393,-39.5,0.664803453));
#1590=CARTESIAN_POINT('',(177.492524109,-39.522186212,0.727902397));
#1591=CARTESIAN_POINT('',(177.468056843,-39.557103028,0.776071181));
#1592=CARTESIAN_POINT('',(177.443589578,-39.592019843,0.824239966));
#1593=CARTESIAN_POINT('',(177.404719658,-39.637326969,0.855576034));
#1594=CARTESIAN_POINT('',(177.356520556,-39.675742809,0.873057046));
#1595=CARTESIAN_POINT('',(177.308321455,-39.71415865,0.890538059));
#1596=CARTESIAN_POINT('',(177.251387949,-39.746107289,0.895889808));
#1597=CARTESIAN_POINT('',(177.19152152,-39.767306984,0.898213291));
#1598=CARTESIAN_POINT('',(177.131655092,-39.788506678,0.900536773));
#1599=CARTESIAN_POINT('',(177.067632738,-39.799771118,0.899999997));
#1600=CARTESIAN_POINT('',(177.003250827,-39.799996507,0.9));
#1601=B_SPLINE_CURVE_WITH_KNOTS('',3,(#1588,#1589,#1590,#1591,#1592,#1593,#1594,#1595,#1596,#1597,#1598,#1599,#1600),.UNSPECIFIED.,.F.,.F.,(4,3,3,3,4),(0.,0.000191644,0.000383288,0.000574932,0.000766575),.UNSPECIFIED.);
#1602=EDGE_CURVE('',#1316,#1587,#1601,.T.);
#1603=ORIENTED_EDGE('',*,*,#1602,.T.);
#1604=CARTESIAN_POINT('',(177.002926254,-39.799999824,0.9));
#1605=DIRECTION('',(0.999999853,-0.000541894,0.));
#1606=VECTOR('',#1605,0.000325139);
#1607=LINE('',#1604,#1606);
#1608=EDGE_CURVE('',#1472,#1587,#1607,.T.);
#1609=ORIENTED_EDGE('',*,*,#1608,.F.);
#1610=EDGE_LOOP('',(#1583,#1584,#1585,#1603,#1609));
#1611=FACE_BOUND('',#1610,.T.);
#1612=ADVANCED_FACE('',(#1611),#1582,.F.);
#1613=CARTESIAN_POINT('',(165.887501547,-39.4,4.35));
#1614=DIRECTION('',(0.,0.,-1.));
#1615=DIRECTION('',(-1.,0.,0.));
#1616=AXIS2_PLACEMENT_3D('',#1613,#1614,#1615);
#1617=CYLINDRICAL_SURFACE('',#1616,0.4);
#1618=ORIENTED_EDGE('',*,*,#1161,.F.);
#1619=ORIENTED_EDGE('',*,*,#1523,.F.);
#1620=CARTESIAN_POINT('',(165.887501547,-39.8,0.9));
#1621=CARTESIAN_POINT('',(165.829455181,-39.8,0.9));
#1622=CARTESIAN_POINT('',(165.772946137,-39.787541938,0.900715206));
#1623=CARTESIAN_POINT('',(165.720645744,-39.763536987,0.897775836));
#1624=CARTESIAN_POINT('',(165.694495547,-39.751534511,0.896306152));
#1625=CARTESIAN_POINT('',(165.670077237,-39.73693947,0.893826475));
#1626=CARTESIAN_POINT('',(165.64743389,-39.719949246,0.889122598));
#1627=CARTESIAN_POINT('',(165.624790543,-39.702959022,0.884418722));
#1628=CARTESIAN_POINT('',(165.603959982,-39.683414286,0.877349148));
#1629=CARTESIAN_POINT('',(165.586310914,-39.663218925,0.867003628));
#1630=CARTESIAN_POINT('',(165.551012778,-39.622828202,0.846312588));
#1631=CARTESIAN_POINT('',(165.52820087,-39.578851508,0.810369345));
#1632=CARTESIAN_POINT('',(165.515993883,-39.548263466,0.763183079));
#1633=CARTESIAN_POINT('',(165.503786895,-39.517675424,0.715996813));
#1634=CARTESIAN_POINT('',(165.500203212,-39.5,0.658268593));
#1635=CARTESIAN_POINT('',(165.500203212,-39.5,0.6));
#1636=B_SPLINE_CURVE_WITH_KNOTS('',3,(#1620,#1621,#1622,#1623,#1624,#1625,#1626,#1627,#1628,#1629,#1630,#1631,#1632,#1633,#1634,#1635),.UNSPECIFIED.,.F.,.F.,(4,3,3,3,3,4),(0.,0.000170925,0.000256388,0.00034185,0.000512776,0.000683701),.UNSPECIFIED.);
#1637=EDGE_CURVE('',#1512,#1354,#1636,.T.);
#1638=ORIENTED_EDGE('',*,*,#1637,.T.);
#1639=ORIENTED_EDGE('',*,*,#1359,.F.);
#1640=EDGE_LOOP('',(#1618,#1619,#1638,#1639));
#1641=FACE_BOUND('',#1640,.T.);
#1642=ADVANCED_FACE('',(#1641),#1617,.F.);
#1643=CARTESIAN_POINT('',(210.,-39.8,0.6));
#1644=DIRECTION('',(-1.,-0.,0.));
#1645=DIRECTION('',(0.,-1.,0.));
#1646=AXIS2_PLACEMENT_3D('',#1643,#1644,#1645);
#1647=CYLINDRICAL_SURFACE('',#1646,0.3);
#1648=CARTESIAN_POINT('',(177.003251393,-39.8,0.6));
#1649=DIRECTION('',(1.,0.,0.));
#1650=DIRECTION('',(0.,0.,-1.));
#1651=AXIS2_PLACEMENT_3D('',#1648,#1649,#1650);
#1652=CIRCLE('',#1651,0.3);
#1653=EDGE_CURVE('',#1314,#1587,#1652,.T.);
#1654=ORIENTED_EDGE('',*,*,#1653,.F.);
#1655=ORIENTED_EDGE('',*,*,#1365,.F.);
#1656=ORIENTED_EDGE('',*,*,#1637,.F.);
#1657=ORIENTED_EDGE('',*,*,#1517,.T.);
#1658=ORIENTED_EDGE('',*,*,#1499,.F.);
#1659=ORIENTED_EDGE('',*,*,#1608,.T.);
#1660=EDGE_LOOP('',(#1654,#1655,#1656,#1657,#1658,#1659));
#1661=FACE_BOUND('',#1660,.T.);
#1662=ADVANCED_FACE('',(#1661),#1647,.T.);
#1663=CARTESIAN_POINT('',(210.,-39.8,0.6));
#1664=DIRECTION('',(-1.,-0.,0.));
#1665=DIRECTION('',(0.,-1.,0.));
#1666=AXIS2_PLACEMENT_3D('',#1663,#1664,#1665);
#1667=CYLINDRICAL_SURFACE('',#1666,0.3);
#1668=ORIENTED_EDGE('',*,*,#1321,.F.);
#1669=ORIENTED_EDGE('',*,*,#1653,.T.);
#1670=ORIENTED_EDGE('',*,*,#1602,.F.);
#1671=EDGE_LOOP('',(#1668,#1669,#1670));
#1672=FACE_BOUND('',#1671,.T.);
#1673=ADVANCED_FACE('',(#1672),#1667,.T.);
#1674=CLOSED_SHELL('',(#1214,#1245,#1276,#1307,#1369,#1400,#1440,#1464,#1488,#1505,#1529,#1541,#1553,#1565,#1577,#1612,#1642,#1662,#1673));
#1675=MANIFOLD_SOLID_BREP('Body 01',#1674);
#1080=STYLED_ITEM('',(#1079),#1675);
#16=SHAPE_REPRESENTATION('root',(#15),#10);
#17=ADVANCED_BREP_SHAPE_REPRESENTATION('root',(#1072,#1675),#10);
#1683=SHAPE_REPRESENTATION_RELATIONSHIP('','',#16,#17);
#1684=CARTESIAN_POINT('',(0.,0.,0.));
#1685=DIRECTION('',(0.,0.,1.));
#1686=DIRECTION('',(1.,0.,0.));
#1687=AXIS2_PLACEMENT_3D('',#1684,#1685,#1686);
#1689=MAPPED_ITEM('',#1688,#1687);
#1688=REPRESENTATION_MAP(#1687,#16);
#1690=APPLICATION_CONTEXT('Managed model based 3d engineering');
#1691=APPLICATION_PROTOCOL_DEFINITION('international standard','ap242_managed_model_based_3d_engineering',2014,#1690);
#1692=PRODUCT_CONTEXT('',#1690,'mechanical');
#1693=PRODUCT_DEFINITION_CONTEXT('part definition',#1690,'design');
#24=PRODUCT('root','root','',(#1692));
#1694=PRODUCT_RELATED_PRODUCT_CATEGORY('part','',(#24));
#1695=PRODUCT_DEFINITION_FORMATION_WITH_SPECIFIED_SOURCE('','',#24,.NOT_KNOWN.);
#25=PRODUCT_DEFINITION('design','',#1695,#1693);
#23=PRODUCT_DEFINITION_SHAPE('','',#25);
#1696=SHAPE_DEFINITION_REPRESENTATION(#23,#16);
#11=DRAUGHTING_MODEL('',(#1689),#10);
#1697=DESCRIPTIVE_REPRESENTATION_ITEM('KEY','/Users/omercamoglu/Library/Containers/com.shapr3d.shapr/Data/tmp/76CC20AE-AAFD-4C8E-B576-0DB9F2897885.tmp');
#1698=PROPERTY_DEFINITION('KEY','',#25);
#1699=REPRESENTATION('',(#1697),#10);
#1700=PROPERTY_DEFINITION_REPRESENTATION(#1698,#1699);
#1701=GENERAL_PROPERTY('','KEY','');
#1702=GENERAL_PROPERTY_ASSOCIATION('','',#1701,#1698);
#1=MECHANICAL_DESIGN_GEOMETRIC_PRESENTATION_REPRESENTATION('',(#26,#1080),#10);
ENDSEC;
END-ISO-10303-21;
